{"glyphs":{"0":{"ha":790,"x_min":90,"x_max":696,"o":"m 437 1075 q 571 1004 500 1074 q 613 941 589 982 q 643 874 635 894 q 674 772 672 809 q 694 623 682 760 l 696 588 l 696 536 l 684 359 l 659 231 l 631 151 q 596 98 610 115 q 435 -1 496 1 q 399 -4 420 -4 q 381 -3 391 -4 l 379 -3 q 253 43 297 -3 l 235 56 l 218 73 l 205 89 q 144 194 174 118 q 97 367 113 263 q 90 513 90 441 q 102 701 90 610 q 119 804 113 780 l 120 814 q 208 988 168 947 q 332 1073 273 1062 q 391 1079 362 1079 q 437 1075 414 1079 m 313 977 l 313 972 l 314 776 l 313 561 l 311 528 l 308 423 l 307 300 l 308 270 l 308 215 l 307 193 q 320 56 309 70 q 359 28 329 37 q 393 25 369 25 l 397 25 q 463 81 453 25 l 467 123 l 467 155 l 469 206 l 469 230 q 469 316 469 256 l 469 623 q 467 659 469 640 l 465 914 l 463 987 q 422 1049 457 1037 l 404 1051 l 380 1051 l 366 1049 q 318 1006 340 1048 l 313 977 z "},"1":{"ha":507,"x_min":54,"x_max":444,"o":"m 351 1078 q 366 1058 366 1072 l 369 1037 q 372 988 369 1017 l 372 973 q 373 798 372 946 l 371 758 l 372 671 l 372 630 l 372 597 l 370 336 l 368 290 l 368 258 l 363 85 q 362 78 362 81 q 385 48 362 59 l 424 37 q 444 24 444 34 l 444 -1 q 425 -5 436 -5 q 414 -4 420 -5 q 360 -1 392 -1 l 326 1 l 298 3 l 239 4 q 163 3 202 4 l 108 0 l 75 -4 q 61 20 62 -1 l 61 31 q 130 54 63 39 q 153 98 153 67 q 157 204 154 170 q 160 314 160 237 l 161 353 l 160 372 l 160 498 l 158 544 l 163 671 l 163 726 l 165 758 l 165 762 q 153 788 165 778 l 146 788 l 119 781 l 101 775 l 75 768 l 60 768 l 54 770 l 55 777 l 61 787 q 97 812 76 798 l 128 836 l 153 860 l 189 889 l 221 922 q 279 990 252 954 q 351 1078 335 1078 z "},"2":{"ha":747,"x_min":42,"x_max":663,"o":"m 333 1069 l 376 1069 q 490 1044 473 1059 q 602 958 525 1036 q 652 791 652 898 l 652 752 q 606 628 648 693 q 527 541 563 568 q 411 473 492 515 q 284 401 376 448 q 164 305 230 365 q 113 213 132 262 l 111 201 l 113 198 l 120 198 q 220 279 174 262 q 294 296 241 288 l 306 296 q 435 232 381 296 q 541 178 511 178 l 557 180 q 633 286 621 193 l 643 291 q 663 281 650 291 q 635 113 655 161 q 603 73 623 94 q 557 32 591 56 q 438 -6 503 -5 l 406 -7 l 381 -1 q 301 56 321 26 q 208 132 233 132 l 181 134 l 156 133 l 142 129 q 98 88 122 127 q 83 35 87 64 l 71 27 q 42 42 42 30 q 90 239 62 190 q 203 376 118 315 l 326 457 q 431 601 404 515 l 437 701 l 438 720 l 439 771 l 440 850 l 440 853 q 413 1000 440 924 q 318 1043 374 1043 l 298 1043 q 228 1011 236 1026 q 123 818 123 937 q 155 740 123 772 q 179 726 169 726 l 189 726 l 191 735 q 179 777 184 743 q 218 836 179 813 q 269 850 257 850 q 277 850 273 850 q 336 825 311 850 q 362 757 362 797 l 362 755 q 294 640 362 675 q 235 625 275 625 q 152 667 210 625 q 103 787 103 723 l 101 823 q 203 1019 101 936 q 333 1069 257 1056 z "},"3":{"ha":745,"x_min":72,"x_max":673,"o":"m 359 1071 q 467 1052 427 1063 q 547 1009 507 1040 q 607 941 587 977 q 631 839 627 904 q 567 659 629 732 q 443 592 486 595 l 440 590 l 440 583 q 569 528 535 561 q 628 463 602 507 q 650 429 634 454 l 672 351 q 673 300 673 324 q 662 191 673 241 q 613 102 651 140 q 473 11 541 29 l 426 0 l 395 -3 l 342 -3 q 218 17 264 -3 q 149 60 171 37 q 72 236 75 113 l 72 268 q 191 441 72 379 q 224 444 209 444 q 330 387 298 444 q 354 293 353 342 q 355 279 355 286 q 252 180 355 195 q 147 238 175 180 q 130 297 138 257 l 118 297 q 109 238 109 268 l 109 224 q 267 36 109 85 l 284 33 q 406 73 391 33 q 430 292 428 105 l 430 341 q 423 497 430 480 q 309 568 395 568 l 272 568 q 260 585 264 570 q 281 604 267 604 l 301 604 q 399 653 369 604 q 416 861 414 692 q 365 1019 416 993 q 300 1042 342 1042 q 262 1039 293 1042 q 164 958 231 1037 q 138 876 138 909 q 152 827 144 827 l 155 827 q 186 875 162 829 q 256 915 209 915 l 260 915 q 355 824 351 898 l 355 814 q 250 690 355 703 q 115 798 152 690 l 111 839 l 111 848 q 235 1053 117 999 q 359 1071 267 1070 z "},"4":{"ha":692,"x_min":20,"x_max":654,"o":"m 506 1073 l 511 1065 q 391 711 492 920 l 318 591 q 236 473 288 549 q 111 306 185 398 l 113 304 l 296 306 q 347 321 347 306 l 349 330 l 354 481 l 355 501 l 355 543 q 394 570 365 548 q 477 654 424 593 q 530 707 500 688 l 538 707 q 545 562 545 631 l 540 313 l 552 309 l 642 313 q 654 306 654 311 l 654 264 l 652 262 l 587 264 l 564 264 q 538 252 538 264 q 530 66 538 174 q 538 47 530 54 l 584 40 q 606 18 606 37 q 596 -4 606 7 l 532 -1 q 425 2 475 0 l 381 1 l 255 -5 q 247 30 247 1 l 264 37 q 335 74 332 45 l 342 187 l 342 256 l 336 265 l 249 264 l 39 260 l 20 272 q 130 394 88 329 q 227 589 182 475 q 283 812 279 748 q 300 1067 298 941 l 306 1073 l 389 1075 l 506 1073 z "},"5":{"ha":702,"x_min":77,"x_max":652,"o":"m 548 1064 l 555 1057 q 515 932 533 958 q 421 837 496 890 q 288 800 391 811 l 214 803 q 192 739 200 793 q 179 627 182 675 l 182 625 l 184 625 q 309 673 241 673 l 376 669 q 523 620 479 652 q 585 570 566 588 q 625 507 603 551 q 652 376 648 463 q 652 352 652 364 q 630 196 652 278 q 534 60 608 115 q 426 1 507 30 l 356 -10 q 144 62 219 -10 q 89 150 104 108 q 77 219 77 182 q 78 242 77 231 q 152 370 90 322 q 225 403 195 403 q 233 402 229 403 l 240 402 q 352 288 352 395 q 351 270 352 279 q 322 209 348 232 q 277 185 296 185 q 260 184 268 184 q 181 214 217 184 q 150 273 158 228 l 142 273 q 119 194 121 237 q 157 89 121 124 q 226 46 193 54 q 323 26 270 26 q 344 26 333 26 q 411 90 403 39 q 420 302 420 197 q 412 501 420 403 l 409 534 q 354 628 378 615 q 301 642 330 642 q 228 615 273 642 q 142 519 212 610 l 130 532 q 165 901 165 687 l 163 917 l 162 932 q 140 1030 157 985 l 147 1035 q 299 996 232 1006 l 324 994 l 350 996 q 513 1042 443 1006 q 548 1064 528 1055 z "},"6":{"ha":765,"x_min":97,"x_max":674,"o":"m 433 1078 q 547 1039 488 1075 q 643 855 643 960 l 643 853 q 570 719 640 768 q 518 704 543 704 l 516 704 q 401 768 437 707 q 391 819 391 789 q 428 897 395 878 q 480 917 448 917 q 492 916 486 917 q 570 875 553 911 q 589 855 583 855 q 602 880 602 860 q 582 958 597 932 q 492 1031 543 1013 q 434 1046 452 1046 q 342 999 362 1045 q 326 758 326 911 l 321 652 q 339 627 323 627 q 350 629 344 627 q 440 658 377 646 q 463 659 451 659 q 540 646 497 659 q 631 560 583 633 q 674 376 672 486 l 673 338 q 635 148 664 209 q 400 -1 578 13 q 257 32 294 4 q 164 125 196 62 q 122 236 145 155 q 97 506 99 317 l 97 528 q 106 740 97 674 q 140 880 115 806 q 203 994 165 954 q 338 1069 248 1048 q 414 1078 375 1078 q 433 1078 424 1078 m 325 101 q 377 23 330 24 l 389 23 q 460 98 448 26 l 467 186 l 471 456 l 471 477 q 440 611 471 578 q 401 623 422 623 q 324 519 326 621 l 325 101 z "},"7":{"ha":651,"x_min":56,"x_max":603,"o":"m 217 1078 l 222 1078 q 307 1055 275 1073 q 356 1024 343 1038 q 459 941 418 941 l 466 941 q 571 1038 537 941 q 588 1065 584 1065 l 591 1065 q 602 999 602 1061 l 602 993 l 603 984 l 603 919 l 602 909 q 534 760 593 842 q 473 655 507 733 l 456 597 q 444 548 452 559 l 441 460 q 466 235 447 366 l 469 203 q 386 11 458 39 q 319 -4 370 -4 q 191 106 227 -4 q 174 184 178 145 l 176 218 l 179 250 q 205 350 180 271 q 261 479 205 378 l 466 724 q 562 866 551 823 q 567 882 565 871 l 566 887 l 564 887 q 425 792 486 810 l 388 783 q 288 809 328 785 q 232 853 263 834 q 163 890 198 890 q 90 823 90 880 l 93 785 l 93 768 l 94 749 l 94 658 l 93 653 q 80 640 92 648 l 68 635 q 64 634 66 634 q 58 643 59 634 q 66 747 62 655 q 61 875 62 812 l 63 963 l 56 1029 l 56 1034 l 63 1041 l 66 1041 l 87 1026 l 100 1026 q 217 1078 146 1078 z "},"8":{"ha":742,"x_min":87,"x_max":678,"o":"m 355 1095 l 374 1096 l 392 1094 l 408 1092 q 544 1026 452 1092 q 623 865 623 948 l 623 836 q 568 719 623 790 q 478 643 514 656 l 476 635 q 513 602 490 621 q 546 573 531 587 q 605 505 563 550 l 640 448 q 678 309 678 349 l 678 304 q 657 176 673 222 q 594 77 643 125 q 448 0 532 14 l 389 -5 l 336 -1 q 180 62 241 10 q 95 218 110 127 l 90 254 l 87 292 l 90 328 q 136 428 94 358 q 246 536 186 490 l 246 538 q 156 635 172 603 l 129 684 q 104 765 104 744 l 100 833 q 161 994 110 941 q 232 1055 190 1031 q 336 1093 275 1090 l 355 1095 m 214 931 l 214 926 q 317 753 214 836 l 412 684 l 441 663 q 522 716 455 663 q 586 853 586 764 q 537 982 586 932 q 458 1041 525 1010 q 376 1061 429 1061 l 373 1061 q 237 1000 289 1061 q 214 931 214 965 m 131 242 q 163 147 142 183 q 256 64 208 83 q 384 35 316 35 l 400 35 q 551 118 500 35 q 564 170 562 150 l 563 194 q 500 328 557 250 q 400 414 463 371 q 281 513 286 513 q 154 384 212 458 q 128 292 130 336 l 131 242 z "},"9":{"ha":763,"x_min":80,"x_max":658,"o":"m 321 -1 q 208 38 267 2 q 112 221 112 116 l 112 224 q 185 358 115 309 q 237 372 212 372 l 239 372 q 353 309 318 370 q 363 258 363 288 q 327 180 360 198 q 275 159 307 159 q 263 160 269 159 q 185 201 201 165 q 165 221 172 221 q 153 197 153 217 q 173 119 158 145 q 263 45 212 64 q 321 31 302 31 q 413 77 393 31 q 429 319 429 165 l 434 424 q 415 450 432 450 q 404 448 410 450 q 315 419 378 430 q 292 418 303 418 q 214 431 257 418 q 124 517 172 444 q 80 701 83 591 l 81 739 q 119 929 91 868 q 355 1078 177 1063 q 497 1044 461 1072 q 590 951 559 1015 q 632 840 609 921 q 658 570 656 760 l 658 549 q 648 336 658 403 q 614 196 639 270 q 551 82 589 123 q 416 7 507 28 q 341 -1 379 -1 q 321 -1 331 -1 m 430 976 q 378 1054 425 1053 l 366 1054 q 294 979 307 1051 l 288 890 l 284 621 l 284 600 q 315 465 284 498 q 353 453 332 453 q 431 557 429 456 l 430 976 z "},"\u0000":{"ha":610,"x_min":0,"x_max":0,"o":""},"\u001d":{"ha":610,"x_min":0,"x_max":0,"o":""}," ":{"ha":543,"x_min":0,"x_max":0,"o":""}," ":{"ha":543,"x_min":0,"x_max":0,"o":""},"!":{"ha":471,"x_min":136,"x_max":404,"o":"m 277 138 l 404 3 q 267 -127 346 -45 l 259 -127 l 160 -32 q 136 -3 136 -11 q 277 138 136 6 m 368 1063 l 372 1050 l 369 1007 l 368 944 l 364 871 l 361 806 l 361 771 l 361 765 l 357 705 l 361 688 l 357 672 l 360 572 l 358 529 l 357 510 l 359 489 l 361 430 l 360 398 l 361 368 l 365 288 l 363 222 l 356 211 q 199 213 322 213 l 188 222 l 191 245 l 188 331 l 188 385 l 191 420 l 188 484 l 191 529 l 191 583 l 195 660 l 191 685 l 195 765 l 195 825 l 196 915 l 199 1042 l 199 1061 l 205 1068 l 237 1068 l 322 1065 l 368 1063 z "},"$":{"ha":2191,"x_min":68,"x_max":2123,"o":"m 650 968 l 656 968 l 672 947 q 696 917 683 930 q 718 887 704 903 q 771 800 758 834 l 783 770 l 791 751 l 797 727 q 751 696 765 711 q 667 624 726 680 q 633 591 654 608 l 627 581 q 662 495 643 535 l 677 453 q 688 418 682 439 q 709 349 699 383 q 762 190 713 311 q 824 114 777 150 l 824 111 q 789 87 815 102 q 743 52 778 75 l 688 8 l 683 8 q 610 84 650 28 q 566 184 581 132 q 536 286 547 236 l 526 323 l 514 367 q 485 463 499 414 q 482 466 485 466 q 461 454 477 466 l 429 434 l 401 417 l 379 401 q 357 373 361 386 q 333 315 353 361 l 328 307 l 328 304 q 265 214 277 224 q 247 190 256 203 q 306 149 264 178 l 331 134 q 365 111 345 124 l 365 109 l 256 -1 l 250 -1 q 189 37 212 22 l 170 48 q 134 70 154 60 q 71 110 96 94 l 68 115 q 172 237 140 188 l 174 238 l 212 214 l 228 235 q 262 322 255 295 q 271 374 269 354 l 273 387 l 274 407 l 273 431 l 274 447 l 274 459 l 273 475 l 271 496 l 262 541 l 246 591 q 219 651 246 608 q 140 765 219 663 q 85 809 108 803 l 79 814 l 119 849 l 219 941 q 233 952 225 948 q 349 819 338 857 q 361 791 356 804 l 369 772 l 374 771 q 427 806 398 789 q 477 838 444 819 q 573 909 538 884 l 650 968 m 1014 958 q 1085 902 1051 935 q 1124 856 1095 895 l 1139 833 l 1150 815 l 1152 815 q 1235 907 1206 876 q 1259 930 1242 914 q 1278 951 1267 940 q 1353 907 1310 930 l 1395 884 q 1451 851 1415 873 q 1473 865 1462 857 q 1512 897 1492 880 q 1554 939 1531 915 l 1562 939 q 1622 899 1607 909 q 1661 875 1636 888 q 1697 854 1677 863 q 1776 814 1719 838 l 1781 808 l 1782 795 l 1784 738 l 1784 703 l 1786 664 l 1784 637 l 1785 618 l 1785 602 l 1784 581 l 1784 396 l 1785 367 l 1784 334 l 1784 312 l 1784 288 l 1785 260 l 1786 241 l 1787 225 l 1786 210 l 1787 182 l 1825 144 l 1839 125 l 1839 122 q 1742 39 1786 75 q 1706 11 1710 12 q 1600 87 1675 27 l 1573 109 l 1573 114 q 1632 176 1620 157 l 1632 199 l 1630 224 l 1630 241 l 1630 483 l 1629 533 l 1629 671 l 1630 689 l 1630 707 q 1565 755 1626 722 q 1519 784 1548 768 q 1479 806 1497 798 l 1474 805 l 1473 788 l 1474 774 l 1475 751 l 1475 708 l 1476 696 l 1476 642 l 1478 610 l 1478 568 l 1510 572 q 1543 575 1533 573 q 1562 578 1554 578 l 1573 570 l 1545 504 l 1527 465 q 1514 445 1520 447 l 1501 444 l 1489 444 l 1470 442 l 1470 398 l 1469 382 l 1470 353 l 1470 299 l 1470 287 l 1471 276 l 1472 241 l 1475 217 l 1476 184 l 1477 166 q 1521 130 1485 157 l 1529 124 l 1531 118 q 1495 88 1508 96 q 1401 16 1451 47 l 1396 16 l 1277 106 l 1277 114 l 1310 149 l 1320 165 l 1318 216 l 1318 237 l 1318 388 l 1317 413 l 1317 432 l 1316 435 l 1294 430 q 1247 418 1275 426 l 1234 418 q 1225 429 1227 418 l 1253 527 l 1259 555 q 1265 562 1260 562 q 1267 561 1265 562 l 1284 561 q 1316 562 1299 561 q 1320 562 1318 562 q 1326 569 1326 562 l 1326 572 l 1326 601 l 1327 636 l 1326 662 l 1327 686 l 1326 723 l 1326 732 l 1326 743 q 1288 768 1305 754 l 1223 802 l 1215 798 q 1160 770 1184 783 l 1162 762 l 1164 753 l 1168 743 l 1171 736 l 1173 724 l 1177 705 l 1180 690 l 1183 677 l 1187 648 l 1190 632 l 1190 621 l 1190 602 l 1192 587 l 1193 540 l 1190 513 l 1190 510 q 1182 453 1190 498 l 1164 393 q 1135 320 1147 352 q 1102 254 1117 280 l 1086 223 l 1076 203 l 1144 155 l 1157 147 l 1174 136 l 1174 133 q 1091 36 1137 79 l 1074 18 l 1071 18 q 992 60 1049 26 q 886 127 915 106 q 1006 244 901 136 q 1036 225 1022 235 l 1039 231 q 1054 263 1047 242 q 1067 300 1063 286 q 1080 408 1075 330 q 1080 422 1080 414 q 1077 456 1080 438 l 1071 503 q 1044 616 1065 549 l 1038 629 q 985 724 1019 679 q 886 819 954 763 l 886 827 q 981 910 901 827 q 1011 958 998 928 l 1014 958 m 536 811 q 493 789 519 805 q 404 732 452 763 l 385 720 l 387 700 q 399 653 395 678 l 401 627 l 399 598 l 398 578 q 393 541 396 564 l 389 521 l 383 492 l 380 479 q 383 474 380 474 q 392 479 387 474 l 423 503 q 463 534 449 523 q 591 632 545 598 q 634 667 618 654 q 572 781 634 695 l 536 811 m 2026 190 l 2123 87 q 2018 -14 2079 50 l 2012 -14 l 1936 60 q 1917 81 1917 76 q 2026 190 1918 89 z "},"*":{"ha":850,"x_min":68,"x_max":782,"o":"m 505 774 q 600 837 541 802 l 719 924 q 764 950 749 950 l 772 950 q 782 929 779 950 l 779 884 l 775 805 q 726 773 775 795 l 534 654 l 535 647 l 618 598 q 671 564 627 587 q 769 509 692 543 l 770 416 q 758 357 769 357 q 697 397 729 368 q 637 437 688 397 q 531 506 625 440 q 502 526 512 519 l 497 522 l 496 446 l 494 293 l 494 279 l 489 274 l 463 274 l 358 278 l 355 287 l 357 325 l 358 425 l 361 522 l 357 523 q 309 492 335 509 l 267 458 q 92 339 134 366 l 83 339 q 68 347 70 339 l 68 495 q 160 545 68 505 q 229 591 160 551 q 324 646 267 618 l 324 651 l 298 667 l 200 723 l 134 762 q 68 808 71 798 l 68 947 l 81 958 l 94 958 q 330 800 141 919 l 358 777 l 363 781 l 363 798 l 364 848 l 363 903 l 360 961 l 361 1009 l 368 1017 q 440 1015 395 1015 l 494 1015 l 503 1008 l 503 857 l 500 831 l 500 779 l 505 774 z "},"+":{"ha":901,"x_min":68,"x_max":833,"o":"m 378 644 l 379 686 l 380 811 l 382 851 l 382 862 l 379 873 l 382 882 l 379 893 l 382 924 l 382 941 l 388 947 l 413 947 l 494 944 l 531 943 l 534 931 l 532 893 l 531 838 l 528 773 l 526 722 l 526 691 l 526 686 l 523 674 l 526 663 l 526 642 l 572 642 l 618 642 l 697 641 l 736 639 l 779 642 l 810 639 l 827 639 l 833 633 l 833 608 l 830 527 l 829 490 l 817 487 l 779 490 l 724 490 l 659 493 l 608 495 l 577 496 l 572 496 l 560 498 l 549 496 l 525 496 l 524 463 l 523 446 l 524 428 l 526 382 l 525 355 l 526 328 l 529 257 l 528 199 l 522 189 q 443 191 494 191 l 416 191 l 399 191 l 382 191 l 374 199 l 376 219 l 374 295 l 374 343 l 376 374 l 374 424 l 376 463 l 377 498 l 349 498 l 332 498 l 314 497 l 262 495 l 233 496 l 207 495 l 136 492 l 77 494 l 68 499 q 70 585 70 527 l 71 605 l 70 622 l 70 639 l 78 648 l 98 645 l 174 648 l 222 648 l 253 645 l 276 648 l 290 645 l 309 648 l 349 645 l 378 644 z "},",":{"ha":315,"x_min":68,"x_max":248,"o":"m 244 168 l 248 162 l 245 141 l 241 74 l 241 -212 l 239 -244 l 233 -250 q 142 -249 198 -249 l 75 -249 l 68 -233 l 68 -127 l 71 52 l 72 95 l 75 158 l 82 171 l 114 171 l 198 169 l 244 168 z "},"-":{"ha":894,"x_min":68,"x_max":826,"o":"m 821 475 l 810 473 l 772 475 l 716 475 l 652 479 l 593 481 l 547 486 l 535 482 l 332 486 l 314 484 l 262 481 l 233 483 l 206 481 l 136 478 l 77 479 l 68 486 q 70 610 70 517 l 70 629 l 78 638 l 98 635 l 174 638 l 290 635 l 309 638 l 349 635 l 487 635 l 557 631 l 611 631 l 690 631 l 730 629 l 820 629 l 826 622 l 826 593 l 823 517 l 821 475 z "},"­":{"ha":894,"x_min":68,"x_max":826,"o":"m 821 475 l 810 473 l 772 475 l 716 475 l 652 479 l 593 481 l 547 486 l 535 482 l 332 486 l 314 484 l 262 481 l 233 483 l 206 481 l 136 478 l 77 479 l 68 486 q 70 610 70 517 l 70 629 l 78 638 l 98 635 l 174 638 l 290 635 l 309 638 l 349 635 l 487 635 l 557 631 l 611 631 l 690 631 l 730 629 l 820 629 l 826 622 l 826 593 l 823 517 l 821 475 z "},".":{"ha":404,"x_min":68,"x_max":336,"o":"m 209 238 l 336 104 q 199 -26 278 56 l 191 -26 l 92 68 q 68 97 68 90 q 209 238 68 106 z "},":":{"ha":404,"x_min":68,"x_max":336,"o":"m 68 246 l 201 374 q 332 237 250 316 l 332 229 l 237 130 q 209 105 216 105 q 68 246 199 106 m 336 690 l 203 563 q 72 700 154 621 l 72 707 l 168 806 q 195 831 189 831 q 336 690 205 830 z "},";":{"ha":400,"x_min":68,"x_max":332,"o":"m 275 168 l 279 162 l 276 141 l 272 74 l 273 -212 l 271 -244 l 264 -250 q 173 -249 229 -249 l 106 -249 l 99 -233 l 99 -127 l 102 52 l 103 95 l 106 158 l 113 171 l 145 171 l 229 169 l 275 168 m 332 411 l 199 283 q 68 420 150 341 l 68 429 l 163 527 q 191 552 184 552 q 332 411 201 551 z "},";":{"ha":400,"x_min":68,"x_max":332,"o":"m 275 168 l 279 162 l 276 141 l 272 74 l 273 -212 l 271 -244 l 264 -250 q 173 -249 229 -249 l 106 -249 l 99 -233 l 99 -127 l 102 52 l 103 95 l 106 158 l 113 171 l 145 171 l 229 169 l 275 168 m 332 411 l 199 283 q 68 420 150 341 l 68 429 l 163 527 q 191 552 184 552 q 332 411 201 551 z "},"<":{"ha":907,"x_min":68,"x_max":840,"o":"m 838 859 l 840 842 l 835 768 l 838 722 l 829 712 q 499 589 779 700 q 393 554 499 585 q 298 517 339 534 l 298 510 l 391 473 q 511 441 493 441 q 623 392 511 431 q 729 350 636 382 l 835 304 l 831 268 l 832 232 l 830 156 l 820 148 q 729 186 778 168 q 591 241 661 219 q 326 347 568 258 q 263 370 317 355 l 82 438 l 74 451 l 71 510 l 68 575 l 244 644 l 276 661 l 298 671 l 358 690 q 634 795 416 722 l 822 863 l 838 859 z "},"=":{"ha":901,"x_min":68,"x_max":833,"o":"m 821 622 l 810 619 l 772 621 l 716 622 l 652 625 l 593 627 l 547 630 l 535 627 l 332 630 l 314 629 l 262 627 l 233 628 l 206 627 l 136 624 l 77 625 l 68 631 q 70 740 70 659 l 70 757 l 78 766 l 98 763 l 174 766 l 290 763 l 309 766 l 349 763 l 487 763 l 557 760 l 611 760 l 690 760 l 730 757 l 820 757 l 826 751 l 826 726 l 823 659 l 821 622 m 79 370 l 78 408 l 76 475 l 76 500 l 82 506 l 172 505 l 212 507 l 291 507 l 345 507 l 415 509 l 553 507 l 593 510 l 612 507 l 728 509 l 804 505 l 824 508 l 832 500 l 832 446 q 833 373 832 394 l 823 368 l 765 367 l 694 370 l 667 372 l 640 371 l 587 373 l 569 375 l 366 374 l 355 376 l 307 374 l 249 372 l 184 370 l 129 370 l 91 368 l 79 370 z "},">":{"ha":907,"x_min":68,"x_max":840,"o":"m 70 153 l 68 170 l 73 243 l 70 288 l 79 298 q 409 422 130 311 q 514 456 409 427 q 610 494 568 476 l 610 501 l 517 538 q 397 570 414 570 q 286 618 397 579 q 179 661 271 629 l 73 707 l 77 743 l 75 779 l 78 855 l 88 863 q 179 825 130 844 q 317 769 246 792 q 581 665 340 753 q 644 642 591 655 l 825 573 l 834 559 l 837 501 l 840 435 l 663 367 l 631 350 l 609 340 l 549 321 q 274 216 492 288 l 86 148 l 70 153 z "},"?":{"ha":964,"x_min":136,"x_max":897,"o":"m 494 133 l 621 -1 q 485 -132 564 -50 l 477 -132 l 378 -37 q 353 -8 353 -16 q 494 133 354 1 m 629 1055 q 743 1018 694 1040 q 862 836 862 935 l 852 780 q 743 659 818 694 q 629 604 720 644 q 534 576 558 588 q 432 548 469 563 q 321 479 321 496 q 289 416 289 452 l 289 408 q 321 358 289 393 q 478 322 356 330 q 608 350 511 322 q 773 467 684 368 l 788 467 q 895 402 876 421 l 897 389 q 869 359 886 377 q 756 273 756 279 l 661 232 q 474 195 559 201 l 453 198 l 390 198 q 192 291 240 229 q 136 418 153 330 q 387 663 136 578 l 596 726 q 670 772 642 747 l 689 799 l 700 826 q 663 916 700 897 q 551 945 627 941 q 404 901 492 940 q 298 808 353 869 q 256 768 271 768 l 214 795 l 168 829 l 168 845 q 294 975 197 901 q 481 1055 347 1017 l 485 1055 l 511 1061 l 537 1057 l 572 1061 l 606 1055 l 629 1055 z "},"A":{"ha":824,"x_min":-4,"x_max":795,"o":"m 276 947 l 333 943 l 351 943 l 364 940 l 386 947 l 498 947 q 548 807 517 931 l 587 689 l 622 574 q 718 262 661 468 l 731 216 l 795 3 l 792 -4 l 743 -4 l 721 -6 l 626 -6 l 562 234 l 541 254 l 509 252 l 456 259 l 443 256 l 326 252 l 315 256 l 301 252 l 287 252 l 245 256 q 197 79 208 115 l 172 -9 q 92 -9 126 -9 q -4 -7 22 -9 l 4 20 l 14 46 l 25 77 l 33 98 l 40 122 l 45 149 l 64 204 l 87 292 q 220 778 168 566 l 266 943 l 276 947 m 386 772 l 334 575 l 329 532 q 293 418 305 488 l 295 412 l 326 410 l 357 406 l 509 406 l 516 410 l 488 481 l 484 503 l 421 689 q 396 772 404 730 l 386 772 z "},"B":{"ha":991,"x_min":102,"x_max":901,"o":"m 278 210 l 279 182 l 279 159 q 288 148 281 153 l 355 155 l 365 155 l 488 152 l 612 159 l 626 155 l 644 162 q 728 215 687 162 l 743 258 l 746 289 q 700 381 746 327 q 616 416 669 404 l 549 418 l 375 421 l 349 421 q 281 415 281 421 l 277 346 l 276 303 l 278 210 m 482 575 l 519 578 l 561 578 q 723 631 709 578 l 741 673 l 741 687 q 652 796 741 754 l 637 796 q 607 803 631 799 l 547 806 l 423 807 l 388 807 l 352 806 l 314 807 l 290 807 l 272 803 l 272 777 l 270 741 l 268 690 l 272 655 l 268 591 l 272 581 l 296 581 l 311 578 l 321 581 l 328 581 l 380 578 l 460 581 l 482 575 m 290 -11 l 262 -11 l 250 -12 l 205 -9 l 170 -9 q 106 -9 140 -9 l 102 -8 q 103 31 102 7 l 105 51 l 105 79 l 106 126 l 106 180 l 106 255 l 106 276 q 108 361 106 321 l 108 415 l 111 520 l 109 538 l 109 557 l 111 637 l 111 667 l 112 690 l 111 696 l 112 711 l 112 756 l 113 769 l 112 785 l 112 859 q 111 895 112 884 l 111 910 l 109 937 l 108 954 l 114 959 l 132 959 l 219 958 l 237 958 l 248 958 l 275 956 l 294 958 q 551 947 517 953 l 562 947 q 858 774 800 935 q 879 644 879 713 q 833 513 869 564 q 808 492 820 500 q 829 470 819 481 q 901 248 901 385 q 899 212 901 231 q 797 36 872 78 q 705 5 749 9 q 637 -7 681 -5 l 582 -9 l 545 -11 l 503 -12 l 431 -12 l 316 -12 q 290 -11 302 -12 z "},"C":{"ha":1046,"x_min":32,"x_max":998,"o":"m 456 956 l 475 954 l 485 958 l 499 952 l 513 957 l 542 955 l 545 959 l 549 959 q 707 918 642 941 q 770 887 712 909 q 852 819 770 881 l 922 739 q 947 688 937 706 q 990 581 955 682 l 998 550 l 991 546 l 989 546 l 893 549 l 846 546 l 824 542 l 819 555 l 799 635 q 550 797 720 784 q 524 798 536 798 q 304 722 380 798 q 268 691 299 709 q 229 631 268 683 q 192 483 192 564 q 193 452 192 468 l 190 448 q 290 240 198 337 l 294 237 l 328 211 q 424 165 395 165 l 427 165 q 498 149 446 153 l 498 146 l 544 156 l 562 154 q 671 197 614 158 q 725 237 686 199 q 751 263 734 237 q 777 300 772 267 q 808 370 794 302 l 810 374 l 818 374 l 932 365 l 942 366 l 960 370 q 981 361 981 370 l 981 358 q 947 250 975 300 q 685 18 876 104 l 576 -14 l 553 -16 q 525 -17 536 -17 l 512 -17 q 292 31 395 -17 q 98 231 175 93 q 46 389 52 315 l 37 420 l 37 465 l 32 479 q 64 662 37 607 q 150 803 99 744 q 304 913 248 907 q 456 956 375 950 z "},"D":{"ha":1033,"x_min":96,"x_max":939,"o":"m 513 935 l 593 934 l 662 924 l 721 906 q 827 846 791 879 q 939 441 939 758 l 939 434 q 932 381 939 381 l 936 377 l 936 374 q 883 183 922 258 q 724 21 822 64 q 594 -3 618 -3 l 467 -3 l 446 -7 l 410 0 l 396 -3 l 107 -3 l 96 7 l 100 32 l 100 50 l 96 71 l 100 74 l 100 77 l 96 127 l 99 469 l 100 571 l 104 606 l 104 673 l 107 913 l 107 935 l 114 941 l 118 941 l 136 938 l 146 941 l 231 938 l 277 938 l 369 941 l 513 935 m 269 649 l 269 642 l 266 628 l 269 614 l 269 509 l 266 427 l 266 363 l 262 342 l 266 338 l 266 335 l 259 218 l 262 205 l 259 170 l 262 170 l 319 165 l 347 170 l 498 162 q 728 254 672 165 q 774 363 757 287 l 781 388 l 784 476 l 781 497 l 784 515 q 774 561 781 553 l 781 578 q 756 656 774 578 l 745 684 q 650 762 703 747 l 594 783 l 590 779 l 357 787 l 319 783 l 287 787 q 269 649 269 787 z "},"E":{"ha":905,"x_min":86,"x_max":833,"o":"m 113 935 l 120 946 l 180 946 q 313 942 290 946 q 360 943 340 943 l 538 943 q 622 942 558 943 q 674 941 654 941 q 703 942 694 941 l 819 943 l 827 933 l 827 905 l 830 829 l 829 796 l 822 789 q 758 790 812 789 q 695 791 704 791 q 588 787 603 787 l 567 785 l 528 783 l 506 787 l 372 787 q 314 784 328 784 q 264 763 264 784 l 264 761 q 267 659 267 694 l 267 648 q 264 612 267 631 q 285 563 264 563 q 317 566 304 563 q 381 563 351 563 l 602 566 l 610 555 l 610 545 q 606 431 610 526 l 606 406 l 595 395 l 561 397 q 544 397 554 397 q 492 395 524 397 q 394 396 437 396 q 286 392 322 396 l 276 376 q 273 279 273 313 q 275 245 273 254 q 270 167 271 208 q 292 153 274 153 l 326 153 q 386 152 348 153 q 431 151 407 151 q 517 153 470 151 l 713 157 q 741 153 738 153 q 823 160 783 160 q 830 150 823 159 l 830 96 q 833 0 830 66 l 823 -7 l 812 -7 q 739 -6 808 -7 l 492 -10 q 406 -7 471 -10 q 372 -8 396 -8 q 225 -3 326 -8 l 207 -7 q 154 -3 172 -3 l 121 -7 q 86 7 92 -4 l 90 25 l 90 64 q 98 290 98 144 l 98 348 l 100 420 q 106 477 106 458 q 103 513 106 500 l 111 626 l 107 680 q 111 780 111 752 q 110 890 110 873 l 113 935 z "},"F":{"ha":789,"x_min":92,"x_max":744,"o":"m 119 945 l 190 941 l 204 941 l 286 938 l 342 938 l 345 935 l 349 938 l 448 941 l 645 938 l 722 941 l 726 941 l 740 928 l 740 818 l 744 797 q 724 783 736 783 l 709 783 l 532 779 l 465 779 l 444 783 l 422 779 l 373 782 l 307 776 l 283 777 l 262 777 q 241 755 241 777 q 243 744 241 751 l 250 667 l 246 646 l 246 561 l 249 552 l 257 547 l 391 553 l 405 550 l 515 553 l 518 553 l 576 557 l 593 550 l 606 393 l 598 383 l 551 385 l 486 388 l 448 381 l 430 385 l 412 385 l 349 388 l 334 385 l 258 388 l 253 378 l 254 346 l 250 328 l 257 222 l 254 212 q 264 53 257 94 l 260 39 l 264 14 q 243 -7 262 -7 l 102 -11 l 92 0 l 95 92 l 98 314 l 92 606 l 98 672 l 92 694 l 99 859 l 98 899 q 119 945 98 945 z "},"G":{"ha":1079,"x_min":35,"x_max":994,"o":"m 489 964 l 500 964 q 881 770 723 964 q 947 647 912 730 l 944 644 l 891 647 l 824 644 l 817 647 l 785 644 l 779 644 q 750 696 772 644 q 708 739 735 720 q 662 773 708 754 q 583 806 626 798 q 472 818 564 816 l 468 818 q 277 737 378 818 l 218 658 q 182 559 186 603 l 176 496 q 229 315 189 373 q 292 238 232 291 q 380 182 334 197 q 465 153 380 168 l 474 153 q 609 166 565 153 q 723 239 653 178 q 793 330 753 262 l 787 335 l 634 330 l 630 333 l 630 481 l 637 488 l 831 488 q 962 496 943 492 l 980 485 l 976 435 l 976 326 l 987 108 l 993 62 l 994 33 l 972 26 l 923 30 l 846 27 q 833 121 833 104 l 825 126 q 758 73 783 89 q 521 -9 644 -9 q 250 65 380 -9 q 62 323 120 149 q 35 503 39 383 q 94 732 35 615 q 183 852 113 773 q 346 948 264 924 q 489 964 393 964 z "},"H":{"ha":1026,"x_min":98,"x_max":888,"o":"m 210 945 l 227 943 l 256 945 q 274 935 274 941 l 274 920 l 271 863 l 265 804 l 264 699 l 260 659 l 264 656 l 264 652 l 262 589 l 270 577 l 320 573 l 334 576 l 396 572 l 432 575 l 723 570 l 732 572 l 732 691 l 729 705 l 732 720 l 732 846 l 728 939 l 732 948 l 817 941 l 881 941 q 888 930 888 941 l 884 825 l 884 822 l 884 690 l 881 663 l 881 547 l 884 532 l 881 381 l 881 254 l 884 222 l 884 3 l 881 0 l 825 0 l 732 3 l 726 14 l 732 138 l 729 155 l 732 261 l 729 264 q 730 311 730 290 q 722 410 730 410 l 618 414 l 530 418 l 488 418 l 472 412 l 468 412 l 394 416 l 370 412 l 260 420 l 256 416 l 260 391 l 260 356 l 256 332 l 260 300 l 260 208 l 256 106 l 264 -7 l 260 -11 l 243 -11 l 165 -7 l 105 -18 l 102 -14 l 102 56 l 105 71 l 102 81 l 105 152 l 102 173 l 105 243 l 105 582 l 106 688 l 105 853 l 98 928 q 109 945 102 945 l 210 945 z "},"I":{"ha":415,"x_min":95,"x_max":278,"o":"m 275 931 l 278 917 l 276 869 l 275 800 l 271 720 l 269 646 l 268 608 l 264 385 l 269 231 l 267 196 l 269 162 l 272 74 l 271 1 l 263 -12 q 172 -9 229 -9 l 148 -8 l 127 -9 l 106 -9 l 95 2 l 95 182 l 98 220 l 95 249 l 98 267 l 98 464 l 102 485 l 98 513 l 102 602 l 102 668 l 103 767 l 106 908 l 106 929 l 113 937 l 144 937 l 229 932 l 275 931 z "},"J":{"ha":810,"x_min":14,"x_max":698,"o":"m 535 950 l 543 950 l 588 940 l 599 943 l 694 940 l 698 937 l 690 799 l 694 788 l 684 741 l 691 720 l 690 675 l 684 566 l 687 562 q 659 230 669 254 l 640 164 q 602 106 611 113 q 511 30 602 83 q 384 -9 451 5 l 380 -5 l 376 -5 l 359 -9 l 355 -5 l 338 -9 l 331 -9 q 161 44 245 -9 q 31 214 73 94 q 14 330 14 271 l 14 408 l 20 414 l 184 412 l 188 406 l 184 317 q 229 206 197 246 q 331 153 272 159 l 349 153 q 479 217 409 153 q 522 333 522 286 l 525 414 l 522 429 l 525 481 l 525 552 l 522 605 l 525 650 l 525 911 q 535 950 525 950 z "},"K":{"ha":892,"x_min":94,"x_max":877,"o":"m 111 937 l 165 933 l 214 939 l 252 934 l 256 930 l 252 840 l 256 836 l 256 833 l 249 779 l 252 764 l 249 731 l 245 612 l 245 572 l 249 543 l 248 518 l 251 507 q 319 572 275 519 q 489 764 358 608 q 648 930 495 764 l 658 930 l 725 926 l 749 930 l 795 926 l 834 930 l 838 926 l 838 920 q 764 836 819 887 q 552 612 566 618 q 478 529 478 538 l 478 525 q 581 399 528 478 l 595 377 q 633 337 616 356 q 707 239 678 269 l 792 123 q 877 1 877 15 l 877 -3 q 866 -10 877 -10 q 771 -3 807 -10 l 757 -7 l 749 -7 l 739 -3 l 722 -7 l 693 -7 q 651 58 687 -6 q 591 142 597 140 l 450 340 q 394 414 431 358 l 376 416 q 249 286 326 361 l 256 174 l 252 136 l 249 105 l 252 22 l 252 -7 l 249 -10 l 249 -14 l 178 -10 l 161 -10 l 111 -18 q 94 -3 94 -14 l 98 171 l 97 246 l 101 333 l 97 348 l 101 362 l 97 377 q 104 456 104 408 l 101 576 l 104 709 l 104 728 l 101 742 l 104 760 l 101 811 l 102 859 l 101 923 l 111 937 z "},"L":{"ha":814,"x_min":97,"x_max":788,"o":"m 128 950 q 194 939 159 948 l 225 941 l 266 941 l 269 941 l 286 933 l 278 736 l 280 708 l 271 523 q 273 433 273 467 q 272 398 273 409 l 266 338 q 267 239 267 285 q 267 174 267 204 l 277 166 l 330 168 l 355 168 l 475 164 l 557 160 l 640 159 l 722 155 q 788 141 788 151 l 788 60 l 787 10 l 777 -5 l 618 -3 l 536 3 l 503 0 l 467 3 l 407 3 l 272 4 l 180 1 l 125 0 q 97 10 97 3 l 100 56 l 99 71 l 105 326 l 105 359 l 112 621 l 111 706 l 114 830 l 114 904 q 128 950 114 950 z "},"M":{"ha":1143,"x_min":42,"x_max":1064,"o":"m 56 -15 l 42 -5 l 58 109 l 92 304 l 125 549 q 174 876 152 725 l 184 937 l 197 952 l 239 949 l 295 949 l 341 945 l 376 949 q 387 906 385 939 l 401 859 l 421 779 q 500 511 464 634 l 526 433 l 544 374 q 564 298 555 334 l 572 286 l 600 385 q 661 646 643 540 q 707 857 688 788 q 730 938 715 895 l 733 941 l 736 941 q 763 943 750 943 q 815 940 797 943 l 821 941 l 861 941 l 905 941 l 937 937 q 959 791 940 907 q 983 624 967 718 l 1022 321 q 1064 -9 1043 121 l 1038 -9 l 981 -6 l 958 -7 l 873 -7 l 870 -3 l 863 7 l 840 363 l 836 429 l 831 473 l 820 633 q 787 514 808 633 q 741 337 765 416 l 718 262 q 678 71 688 134 l 663 12 l 653 -17 l 584 -14 l 473 -11 q 453 33 465 -11 q 406 227 431 143 l 389 302 l 373 370 l 355 456 l 293 648 l 286 631 l 282 599 l 271 456 l 270 396 l 265 361 l 262 333 q 250 177 254 260 l 241 144 l 244 141 l 244 138 l 239 91 l 237 74 l 237 67 l 233 53 l 237 50 q 227 -11 237 16 l 180 -13 l 138 -14 l 56 -15 z "},"N":{"ha":976,"x_min":90,"x_max":874,"o":"m 114 935 l 205 928 l 268 927 q 296 879 284 912 q 437 663 316 853 l 508 561 q 656 328 549 511 q 688 279 663 328 l 701 268 l 702 289 l 702 293 l 701 323 l 701 441 l 702 458 l 703 611 l 702 628 l 699 758 l 699 795 l 699 823 l 699 882 l 695 924 l 709 931 l 789 931 q 814 932 803 932 q 864 912 864 932 l 864 843 l 859 644 l 860 610 l 857 589 l 857 406 l 860 317 l 860 293 l 862 163 l 866 120 l 874 14 l 850 0 l 713 -1 l 696 8 q 466 363 629 130 l 311 593 q 261 670 272 644 l 251 659 l 254 434 l 251 423 l 254 370 l 254 243 l 258 222 l 258 155 l 264 109 l 265 3 l 258 -8 l 178 -12 l 163 -11 l 155 -9 l 139 -9 l 92 -14 l 90 -7 l 92 102 l 100 455 l 103 543 l 103 631 l 106 638 l 103 646 l 106 688 l 106 829 l 106 846 l 106 861 l 106 878 l 103 917 l 103 920 l 114 935 z "},"O":{"ha":1034,"x_min":35,"x_max":962,"o":"m 490 968 l 511 964 l 514 968 q 705 919 574 968 q 836 817 804 858 l 863 781 q 962 503 948 659 l 959 503 l 962 499 l 962 439 q 906 241 948 323 q 705 37 858 124 l 645 9 l 549 -9 l 546 -5 l 528 -9 q 307 37 414 -9 l 245 67 q 158 150 211 90 q 38 418 75 236 l 35 460 l 35 517 q 81 696 58 667 q 126 785 81 711 q 158 823 136 785 q 334 940 260 911 q 469 964 401 961 l 490 968 m 179 503 l 186 421 q 264 252 212 302 q 382 174 299 212 l 442 151 l 500 146 q 730 245 612 146 l 754 277 q 796 335 779 297 q 829 496 829 404 q 828 517 829 506 l 799 629 q 754 703 763 677 l 659 774 l 613 795 l 557 817 l 553 813 l 549 813 l 496 820 q 363 795 406 812 q 193 594 250 743 l 179 503 z "},"P":{"ha":935,"x_min":98,"x_max":880,"o":"m 366 952 l 412 956 q 694 928 652 949 q 807 850 755 911 q 880 628 878 770 l 878 593 q 775 416 842 456 q 593 365 711 376 l 504 359 l 404 360 l 309 357 q 284 339 284 348 l 280 236 l 281 173 l 278 159 l 285 130 l 281 113 l 287 28 l 287 15 l 271 -7 l 134 0 l 114 1 l 106 7 l 105 50 l 107 255 l 111 269 l 106 319 l 108 334 l 107 354 l 107 463 l 100 632 l 101 718 l 104 761 l 104 774 l 98 899 l 103 934 l 124 953 l 366 952 m 267 795 l 264 791 l 260 772 l 264 744 l 263 648 l 260 578 l 260 543 q 271 522 260 531 l 370 526 l 433 529 l 447 529 l 472 526 l 549 526 l 595 532 l 627 536 q 711 589 670 536 l 724 616 l 722 638 l 729 663 q 684 755 729 701 q 599 790 652 778 l 475 797 l 387 800 l 376 797 l 267 795 z "},"Q":{"ha":1069,"x_min":37,"x_max":996,"o":"m 531 982 l 534 982 l 552 979 q 753 917 652 971 q 943 718 853 862 q 992 492 992 604 l 992 488 l 996 474 l 989 435 l 992 432 q 939 256 992 377 q 925 227 932 256 q 777 73 853 117 l 736 44 l 732 31 l 732 20 l 743 -33 q 787 -98 758 -98 q 795 -97 791 -98 l 831 -97 l 848 -94 l 855 -129 l 854 -193 l 852 -231 q 841 -238 852 -238 q 626 -161 677 -238 q 576 -2 595 -109 l 524 -5 l 524 -2 l 520 -5 l 450 -5 q 277 44 393 2 l 178 115 q 76 288 92 223 q 49 373 62 311 q 37 507 37 446 q 50 624 37 571 l 55 647 q 143 806 77 717 q 323 940 258 928 q 531 982 425 982 m 467 817 l 464 820 l 460 820 q 305 749 397 820 q 199 559 216 657 q 192 503 192 544 l 192 460 q 288 235 192 334 q 344 199 320 199 q 446 146 344 174 l 488 139 l 510 138 l 531 139 l 534 139 q 743 245 686 173 q 838 467 838 341 l 834 471 l 838 488 q 743 714 838 602 q 675 770 720 740 q 570 813 635 805 q 506 823 570 820 l 467 817 z "},"R":{"ha":1003,"x_min":92,"x_max":947,"o":"m 111 951 l 115 951 l 199 952 l 263 949 l 284 952 q 549 941 507 948 l 552 941 q 848 769 790 930 q 869 638 869 708 q 824 513 859 559 q 774 476 804 489 q 753 458 763 465 l 753 452 q 807 411 774 435 q 852 311 840 371 q 878 191 867 260 l 881 174 l 886 138 l 890 114 q 947 3 909 43 l 947 0 l 940 -11 l 871 -5 l 824 -11 l 804 -9 l 792 -7 q 714 180 748 -7 l 708 220 l 699 279 l 690 318 l 667 357 q 534 420 627 397 l 513 416 l 510 416 l 418 420 l 366 416 l 334 417 l 273 414 l 267 404 l 267 289 l 269 211 l 270 176 l 269 153 l 270 134 q 281 -7 273 55 l 252 -7 l 240 -8 l 209 -9 l 184 -9 l 92 -14 q 93 33 92 9 l 95 54 l 96 73 l 97 121 l 97 174 l 100 241 l 100 262 q 102 347 100 307 l 104 487 l 104 529 l 105 632 l 106 661 l 108 751 l 109 763 l 108 779 l 108 852 q 106 889 108 878 l 104 902 l 104 944 l 111 951 m 267 797 l 267 770 l 264 735 l 263 684 l 267 649 l 263 585 l 267 575 l 420 575 l 464 568 l 505 571 l 554 571 q 702 624 672 571 q 720 684 720 650 q 715 723 720 694 q 634 790 711 751 l 614 787 q 590 797 614 793 l 307 800 l 283 800 l 267 797 z "},"S":{"ha":856,"x_min":28,"x_max":789,"o":"m 295 972 l 319 971 l 352 979 l 387 974 l 414 978 l 439 972 l 443 972 q 630 880 578 928 q 757 732 728 796 l 757 714 l 711 675 l 669 644 q 627 690 653 644 q 521 795 572 760 q 373 846 433 840 q 262 813 297 842 q 224 711 224 791 l 235 680 l 254 648 q 328 597 283 620 l 538 525 q 789 245 789 429 q 732 100 772 146 q 535 -5 685 30 l 471 -5 l 450 -9 q 263 33 366 -2 l 168 79 q 55 178 168 87 q 28 212 38 199 l 29 227 q 136 302 49 249 l 152 301 q 316 168 241 189 q 447 136 413 136 q 604 177 568 144 q 635 233 635 216 l 635 244 q 604 315 635 283 q 492 393 604 334 q 390 425 456 411 q 295 456 366 439 q 182 520 204 503 q 73 658 106 561 l 62 721 q 182 929 62 834 q 295 972 231 955 z "},"T":{"ha":806,"x_min":19,"x_max":764,"o":"m 260 970 l 447 963 l 454 963 l 483 967 l 634 954 l 708 952 l 756 953 l 764 945 l 764 931 l 761 878 l 764 867 l 757 804 l 761 787 l 743 776 l 694 779 l 683 779 l 648 776 l 528 783 q 465 762 465 783 l 465 606 l 461 518 l 465 508 l 461 490 l 461 346 l 459 334 l 465 292 l 465 99 l 462 75 l 471 -5 l 463 -14 l 415 -7 l 402 -11 l 361 -9 q 288 -18 323 -12 l 284 -18 q 277 -7 277 -18 l 285 112 l 288 138 l 298 384 l 292 419 l 292 422 l 299 540 l 296 557 l 302 741 l 304 770 l 296 779 l 242 779 l 197 783 l 136 779 q 47 774 82 779 l 26 774 l 19 781 l 24 812 l 20 833 l 27 862 l 20 901 l 25 945 q 64 966 25 966 l 69 966 l 260 970 z "},"U":{"ha":936,"x_min":104,"x_max":814,"o":"m 149 964 l 251 959 l 260 946 q 255 843 255 928 l 256 340 q 273 262 260 307 l 315 192 q 441 133 382 139 l 504 138 q 610 198 589 155 q 640 241 633 218 q 659 330 657 279 l 657 351 q 665 570 665 381 l 662 721 q 663 832 663 783 q 661 950 663 906 l 665 954 l 682 954 l 710 958 l 735 954 l 763 958 l 781 954 l 809 956 l 812 945 l 814 899 l 812 831 l 810 377 l 804 309 q 755 140 793 198 q 623 23 692 54 q 471 -9 536 -9 q 292 26 366 -9 q 248 50 255 37 q 142 161 219 51 q 104 344 104 238 l 106 630 l 104 885 l 106 900 l 104 934 l 105 956 q 149 964 107 961 z "},"V":{"ha":805,"x_min":15,"x_max":785,"o":"m 19 945 l 38 947 l 117 941 l 165 945 l 177 935 q 311 529 191 872 q 347 399 315 529 q 387 282 368 333 l 395 282 l 427 381 l 423 391 q 469 543 469 522 q 522 681 479 544 q 568 811 534 697 l 617 941 l 656 936 l 694 938 l 777 935 l 785 922 q 744 811 764 871 q 684 642 709 728 q 571 317 667 614 q 547 240 562 306 l 473 18 l 458 7 l 395 3 l 324 0 l 250 216 l 232 256 l 222 283 l 201 356 q 88 694 165 428 l 15 925 l 19 945 z "},"W":{"ha":1204,"x_min":32,"x_max":1158,"o":"m 1116 952 l 1126 949 l 1137 952 q 1158 935 1158 948 l 1105 712 l 1078 585 l 1067 571 l 1070 568 l 1070 564 q 943 26 996 279 l 940 3 l 932 -18 l 890 -14 l 834 -14 l 788 -11 l 753 -14 q 721 148 744 -4 q 638 507 668 408 l 633 547 l 633 561 q 605 649 608 619 l 602 649 q 573 550 590 649 q 513 289 531 395 q 453 60 474 176 q 439 -3 444 53 l 435 -7 l 432 -7 q 382 0 382 -4 l 361 -7 l 351 -3 l 277 -7 l 270 -7 q 241 88 258 -7 q 182 311 203 249 l 108 614 q 45 846 51 814 q 32 914 32 891 q 45 939 32 937 l 108 941 l 118 938 l 136 941 l 183 942 l 197 931 l 210 871 l 291 543 l 291 532 l 347 286 q 351 284 349 284 q 390 391 367 284 q 435 571 411 500 l 432 582 q 496 864 474 730 l 499 875 l 496 878 q 533 939 509 939 l 536 939 l 570 941 l 682 945 q 703 868 691 945 q 728 723 717 857 q 788 476 732 723 l 843 284 l 856 286 l 862 312 l 897 500 l 915 568 l 911 571 l 911 575 q 949 760 926 602 q 993 945 972 919 l 1116 952 z "},"X":{"ha":879,"x_min":20,"x_max":844,"o":"m 118 940 l 224 940 q 267 869 237 940 q 312 791 293 846 q 423 633 328 779 l 434 625 q 499 725 441 625 q 545 795 515 737 q 625 939 573 823 q 825 925 825 939 q 789 852 824 890 q 714 749 758 800 q 623 608 710 734 q 531 485 551 505 l 532 471 q 640 312 594 385 q 695 233 652 312 l 764 129 q 844 23 808 79 l 844 12 q 834 -9 844 -6 l 820 -9 l 788 -5 l 785 -9 l 781 -9 l 735 -2 l 732 -5 l 728 -5 l 637 -9 q 606 36 623 -9 l 584 60 l 562 115 l 509 206 q 435 333 473 256 l 429 333 l 408 298 q 333 168 408 278 l 280 79 q 220 -9 234 -5 l 73 -5 l 33 -9 l 20 9 l 20 26 q 135 188 71 89 q 199 302 199 287 q 231 340 217 305 l 301 450 q 322 492 322 473 q 182 700 269 553 l 65 859 q 30 929 30 900 q 118 940 30 940 z "},"Y":{"ha":808,"x_min":-15,"x_max":809,"o":"m 307 437 l 299 460 q 186 617 232 543 q 140 684 170 629 q 95 749 127 699 q 63 802 76 772 q 1 898 18 863 l -15 920 q -10 937 -15 931 l 9 937 l 31 940 l 42 941 l 58 938 l 82 937 l 98 937 l 190 941 q 219 892 203 941 l 236 875 l 257 816 q 317 724 265 816 q 391 595 353 673 l 398 595 l 419 631 q 493 763 463 707 l 546 852 q 606 941 593 937 l 631 937 l 712 941 l 754 937 l 789 937 l 809 926 l 804 909 q 675 720 746 842 l 650 684 q 610 624 618 643 q 572 574 591 604 l 505 481 q 478 436 484 455 l 475 428 l 475 393 l 478 325 l 478 318 l 479 279 l 481 205 l 486 125 l 486 54 l 488 2 l 479 -9 l 439 -9 l 355 -13 l 323 -13 l 316 -6 l 316 15 l 313 54 l 316 108 l 313 157 l 313 257 l 313 325 l 309 414 l 307 437 z "},"Z":{"ha":878,"x_min":27,"x_max":800,"o":"m 123 951 l 287 945 l 316 948 l 352 944 l 458 937 l 490 941 l 511 937 l 528 942 l 566 939 l 613 937 l 627 941 l 641 937 l 782 937 l 796 922 l 800 843 l 796 792 l 794 766 q 780 741 790 751 q 715 677 760 726 l 676 626 l 560 503 q 463 401 532 479 q 373 315 419 364 q 211 170 302 243 l 221 156 l 264 159 l 267 156 l 285 159 l 334 159 l 366 163 l 401 159 l 517 159 l 538 163 l 599 152 l 620 156 l 679 151 l 777 155 l 785 149 l 789 76 l 793 62 l 788 19 l 787 -1 l 779 -7 l 735 -5 l 711 -7 l 690 -7 l 640 -8 l 618 -9 l 591 -7 l 425 -12 l 397 -8 l 385 -9 l 333 -9 l 233 -11 l 191 -9 l 176 -11 l 144 -9 l 105 -9 l 84 -11 l 58 -11 l 38 -9 l 28 -9 l 27 15 l 38 174 l 38 181 q 109 268 38 208 q 299 456 146 315 l 530 697 q 564 728 531 704 l 585 752 l 592 761 l 604 775 l 615 787 l 607 796 l 594 794 l 562 794 l 500 791 l 466 790 l 435 787 l 376 789 l 366 785 l 349 789 l 241 779 l 216 783 l 119 778 l 112 785 l 112 857 l 115 879 q 109 930 109 895 q 123 951 109 951 z "},"_":{"ha":894,"x_min":68,"x_max":826,"o":"m 821 -79 l 810 -83 l 772 -81 l 716 -79 l 652 -77 l 593 -75 l 547 -71 l 535 -73 l 332 -71 l 314 -72 l 262 -75 l 233 -73 l 206 -75 l 136 -77 l 77 -76 l 68 -70 q 70 47 70 -40 l 70 66 l 78 75 l 98 71 l 174 75 l 290 71 l 309 75 l 349 71 l 487 71 l 557 68 l 611 68 l 690 68 l 730 66 l 820 66 l 826 60 l 826 32 l 823 -40 l 821 -79 z "},"a":{"ha":829,"x_min":3,"x_max":802,"o":"m 283 947 l 340 943 l 357 943 l 371 940 l 393 947 l 505 947 q 555 807 524 931 l 593 689 l 629 574 q 725 262 667 468 l 738 216 l 802 3 l 799 -4 l 750 -4 l 728 -6 l 633 -6 l 569 234 l 547 254 l 516 252 l 463 259 l 450 256 l 332 252 l 322 256 l 308 252 l 294 252 l 252 256 q 203 79 215 115 l 179 -9 q 99 -9 133 -9 q 3 -7 29 -9 l 11 20 l 20 46 l 32 77 l 40 98 l 47 122 l 52 149 l 71 204 l 94 292 q 227 778 175 566 l 273 943 l 283 947 m 393 772 l 341 575 l 336 532 q 300 418 312 488 l 302 412 l 332 410 l 364 406 l 516 406 l 523 410 l 495 481 l 491 503 l 428 689 q 403 772 411 730 l 393 772 z "},"b":{"ha":997,"x_min":109,"x_max":908,"o":"m 286 210 l 287 182 l 286 159 q 295 148 289 153 l 362 155 l 372 155 l 496 152 l 619 159 l 633 155 l 651 162 q 736 215 694 162 l 750 258 l 753 289 q 707 381 753 327 q 623 416 677 404 l 556 418 l 382 421 l 356 421 q 289 415 289 421 l 284 346 l 283 303 l 286 210 m 490 575 l 526 578 l 568 578 q 730 631 716 578 l 748 673 l 748 687 q 660 796 748 754 l 645 796 q 614 803 639 799 l 554 806 l 431 807 l 395 807 l 359 806 l 321 807 l 297 807 l 279 803 l 279 777 l 277 741 l 275 690 l 279 655 l 275 591 l 279 581 l 304 581 l 318 578 l 328 581 l 336 581 l 387 578 l 468 581 l 490 575 m 298 -11 l 269 -11 l 257 -12 l 213 -9 l 177 -9 q 114 -9 148 -9 l 109 -8 q 111 31 109 7 l 113 51 l 113 79 l 114 126 l 114 180 l 113 255 l 113 276 q 115 361 113 321 l 115 415 l 118 520 l 117 538 l 117 557 l 119 637 l 118 667 l 119 690 l 119 696 l 119 711 l 119 756 l 121 769 l 119 785 l 119 859 q 118 895 119 884 l 118 910 l 117 937 l 115 954 l 121 959 l 139 959 l 227 958 l 245 958 l 255 958 l 283 956 l 301 958 q 559 947 524 953 l 569 947 q 865 774 807 935 q 886 644 886 713 q 841 513 876 564 q 816 492 827 500 q 836 470 827 481 q 908 248 908 385 q 907 212 908 231 q 804 36 880 78 q 713 5 757 9 q 644 -7 688 -5 l 589 -9 l 553 -11 l 510 -12 l 439 -12 l 323 -12 q 298 -11 309 -12 z "},"c":{"ha":1051,"x_min":39,"x_max":1005,"o":"m 464 956 l 482 954 l 492 958 l 507 952 l 521 957 l 549 955 l 552 959 l 556 959 q 715 918 649 941 q 777 887 720 909 q 860 819 777 881 l 929 739 q 954 688 945 706 q 998 581 962 682 l 1005 550 l 999 546 l 996 546 l 901 549 l 854 546 l 831 542 l 826 555 l 806 635 q 557 797 727 784 q 531 798 544 798 q 312 722 387 798 q 275 691 307 709 q 237 631 275 683 q 199 483 199 564 q 201 452 199 468 l 197 448 q 298 240 205 337 l 301 237 l 335 211 q 431 165 402 165 l 434 165 q 506 149 453 153 l 506 146 l 551 156 l 569 154 q 679 197 622 158 q 732 237 693 199 q 759 263 741 237 q 785 300 779 267 q 815 370 802 302 l 818 374 l 825 374 l 939 365 l 949 366 l 967 370 q 989 361 988 370 l 989 358 q 954 250 982 300 q 692 18 884 104 l 583 -14 l 561 -16 q 532 -17 544 -17 l 519 -17 q 299 31 402 -17 q 105 231 182 93 q 54 389 59 315 l 44 420 l 44 465 l 39 479 q 72 662 44 607 q 157 803 106 744 q 312 913 256 907 q 464 956 382 950 z "},"d":{"ha":1037,"x_min":103,"x_max":946,"o":"m 519 935 l 600 934 l 669 924 l 728 906 q 833 846 798 879 q 946 441 946 758 l 946 434 q 939 381 946 381 l 943 377 l 943 374 q 890 183 928 258 q 731 21 829 64 q 601 -3 625 -3 l 473 -3 l 452 -7 l 417 0 l 403 -3 l 114 -3 l 103 7 l 107 32 l 107 50 l 103 71 l 107 74 l 107 77 l 103 127 l 106 469 l 107 571 l 111 606 l 111 673 l 114 913 l 114 935 l 121 941 l 125 941 l 142 938 l 153 941 l 237 938 l 283 938 l 376 941 l 519 935 m 276 649 l 276 642 l 273 628 l 276 614 l 276 509 l 273 427 l 273 363 l 269 342 l 273 338 l 273 335 l 266 218 l 269 205 l 266 170 l 269 170 l 326 165 l 354 170 l 505 162 q 734 254 679 165 q 781 363 764 287 l 787 388 l 791 476 l 787 497 l 791 515 q 781 561 787 553 l 787 578 q 763 656 781 578 l 752 684 q 657 762 709 747 l 601 783 l 597 779 l 364 787 l 326 783 l 294 787 q 276 649 276 787 z "},"e":{"ha":911,"x_min":94,"x_max":841,"o":"m 121 935 l 127 946 l 188 946 q 320 942 298 946 q 368 943 348 943 l 546 943 q 629 942 566 943 q 682 941 661 941 q 711 942 702 941 l 827 943 l 834 933 l 834 905 l 838 829 l 836 796 l 829 789 q 765 790 819 789 q 703 791 711 791 q 595 787 610 787 l 574 785 l 535 783 l 513 787 l 379 787 q 321 784 336 784 q 272 763 272 784 l 272 761 q 275 659 275 694 l 275 648 q 271 612 275 631 q 292 563 271 563 q 325 566 311 563 q 389 563 358 563 l 610 566 l 617 555 l 617 545 q 613 431 617 526 l 613 406 l 602 395 l 568 397 q 551 397 562 397 q 499 395 531 397 q 401 396 444 396 q 293 392 330 396 l 283 376 q 280 279 280 313 q 282 245 280 254 q 277 167 278 208 q 299 153 281 153 l 334 153 q 393 152 355 153 q 438 151 414 151 q 524 153 477 151 l 720 157 q 749 153 745 153 q 831 160 791 160 q 838 150 831 159 l 838 96 q 841 0 838 66 l 831 -7 l 820 -7 q 746 -6 816 -7 l 499 -10 q 414 -7 479 -10 q 380 -8 404 -8 q 233 -3 333 -8 l 214 -7 q 161 -3 179 -3 l 129 -7 q 94 7 100 -4 l 97 25 l 97 64 q 106 290 106 144 l 106 348 l 108 420 q 114 477 114 458 q 111 513 114 500 l 118 626 l 115 680 q 119 780 119 752 q 117 890 117 873 l 121 935 z "},"f":{"ha":795,"x_min":99,"x_max":751,"o":"m 127 945 l 197 941 l 212 941 l 293 938 l 349 938 l 353 935 l 356 938 l 455 941 l 652 938 l 730 941 l 734 941 l 747 928 l 747 818 l 751 797 q 731 783 744 783 l 716 783 l 540 779 l 473 779 l 452 783 l 430 779 l 380 782 l 314 776 l 290 777 l 269 777 q 249 755 249 777 q 250 744 249 751 l 258 667 l 254 646 l 254 561 l 256 552 l 264 547 l 399 553 l 412 550 l 522 553 l 526 553 l 583 557 l 601 550 l 614 393 l 606 383 l 558 385 l 494 388 l 455 381 l 437 385 l 420 385 l 356 388 l 342 385 l 265 388 l 260 378 l 261 346 l 258 328 l 264 222 l 261 212 q 271 53 264 94 l 268 39 l 271 14 q 250 -7 269 -7 l 110 -11 l 99 0 l 102 92 l 106 314 l 99 606 l 106 672 l 99 694 l 106 859 l 106 899 q 127 945 106 945 z "},"g":{"ha":1084,"x_min":41,"x_max":1000,"o":"m 496 964 l 507 964 q 888 770 730 964 q 954 647 919 730 l 951 644 l 898 647 l 831 644 l 824 647 l 792 644 l 785 644 q 757 696 779 644 q 715 739 742 720 q 669 773 715 754 q 590 806 633 798 q 479 818 570 816 l 475 818 q 284 737 385 818 l 224 658 q 189 559 193 603 l 182 496 q 235 315 196 373 q 298 238 239 291 q 387 182 341 197 q 471 153 387 168 l 481 153 q 616 166 572 153 q 730 239 660 178 q 800 330 760 262 l 794 335 l 641 330 l 637 333 l 637 481 l 644 488 l 838 488 q 969 496 949 492 l 987 485 l 983 435 l 983 326 l 994 108 l 1000 62 l 1000 33 l 979 26 l 930 30 l 852 27 q 840 121 840 104 l 831 126 q 764 73 790 89 q 528 -9 650 -9 q 256 65 387 -9 q 69 323 127 149 q 41 503 45 383 q 101 732 41 615 q 190 852 119 773 q 353 948 271 924 q 496 964 399 964 z "},"h":{"ha":1031,"x_min":104,"x_max":895,"o":"m 217 945 l 233 943 l 263 945 q 281 935 281 941 l 281 920 l 278 863 l 272 804 l 271 699 l 267 659 l 271 656 l 271 652 l 269 589 l 277 577 l 327 573 l 341 576 l 403 572 l 439 575 l 730 570 l 739 572 l 739 691 l 736 705 l 739 720 l 739 846 l 735 939 l 739 948 l 824 941 l 888 941 q 895 930 895 941 l 891 825 l 891 822 l 890 690 l 888 663 l 888 547 l 891 532 l 888 381 l 888 254 l 891 222 l 891 3 l 888 0 l 831 0 l 739 3 l 732 14 l 739 138 l 736 155 l 739 261 l 736 264 q 736 311 736 290 q 728 410 736 410 l 625 414 l 536 418 l 495 418 l 479 412 l 475 412 l 401 416 l 376 412 l 267 420 l 263 416 l 267 391 l 267 356 l 263 332 l 267 300 l 267 208 l 263 106 l 271 -7 l 267 -11 l 250 -11 l 172 -7 l 112 -18 l 109 -14 l 109 56 l 112 71 l 109 81 l 112 152 l 109 173 l 112 243 l 112 582 l 113 688 l 112 853 l 104 928 q 115 945 109 945 l 217 945 z "},"i":{"ha":420,"x_min":102,"x_max":286,"o":"m 282 931 l 286 917 l 283 869 l 282 800 l 279 720 l 276 646 l 275 608 l 272 385 l 276 231 l 275 196 l 276 162 l 279 74 l 278 1 l 271 -12 q 180 -9 237 -9 l 155 -8 l 134 -9 l 113 -9 l 102 2 l 102 182 l 106 220 l 102 249 l 106 267 l 106 464 l 109 485 l 106 513 l 109 602 l 109 668 l 111 767 l 113 908 l 113 929 l 120 937 l 152 937 l 237 932 l 282 931 z "},"j":{"ha":815,"x_min":21,"x_max":705,"o":"m 543 950 l 550 950 l 595 940 l 606 943 l 701 940 l 705 937 l 698 799 l 701 788 l 691 741 l 699 720 l 698 675 l 691 566 l 694 562 q 666 230 677 254 l 647 164 q 610 106 618 113 q 518 30 610 83 q 391 -9 458 5 l 388 -5 l 384 -5 l 366 -9 l 363 -5 l 345 -9 l 338 -9 q 169 44 253 -9 q 39 214 81 94 q 21 330 21 271 l 21 408 l 28 414 l 192 412 l 195 406 l 192 317 q 236 206 204 246 q 338 153 279 159 l 356 153 q 486 217 416 153 q 529 333 529 286 l 532 414 l 529 429 l 532 481 l 532 552 l 530 605 l 532 650 l 532 911 q 543 950 532 950 z "},"k":{"ha":897,"x_min":100,"x_max":884,"o":"m 118 937 l 172 933 l 221 939 l 259 934 l 262 930 l 259 840 l 262 836 l 262 833 l 256 779 l 259 764 l 256 731 l 252 612 l 252 572 l 256 543 l 254 518 l 258 507 q 326 572 281 519 q 496 764 365 608 q 654 930 502 764 l 665 930 l 732 926 l 756 930 l 802 926 l 841 930 l 844 926 l 844 920 q 770 836 826 887 q 559 612 572 618 q 485 529 485 538 l 485 525 q 587 399 534 478 l 602 377 q 640 337 623 356 q 714 239 685 269 l 799 123 q 884 1 884 15 l 884 -3 q 873 -10 884 -10 q 778 -3 814 -10 l 764 -7 l 756 -7 l 746 -3 l 728 -7 l 700 -7 q 658 58 694 -6 q 597 142 604 140 l 456 340 q 401 414 437 358 l 382 416 q 256 286 332 361 l 262 174 l 258 136 l 256 105 l 259 22 l 259 -7 l 256 -10 l 256 -14 l 185 -10 l 168 -10 l 118 -18 q 100 -3 100 -14 l 105 171 l 104 246 l 108 333 l 104 348 l 108 362 l 104 377 q 111 456 111 408 l 108 576 l 111 709 l 111 728 l 108 742 l 111 760 l 108 811 l 109 859 l 108 923 l 118 937 z "},"l":{"ha":814,"x_min":97,"x_max":788,"o":"m 128 950 q 194 939 159 948 l 225 941 l 266 941 l 269 941 l 286 933 l 278 736 l 280 708 l 271 523 q 273 433 273 467 q 272 398 273 409 l 266 338 q 267 239 267 285 q 267 174 267 204 l 277 166 l 330 168 l 355 168 l 475 164 l 557 160 l 640 159 l 722 155 q 788 141 788 151 l 788 60 l 787 10 l 777 -5 l 618 -3 l 536 3 l 503 0 l 467 3 l 407 3 l 272 4 l 180 1 l 125 0 q 97 10 97 3 l 100 56 l 99 71 l 105 326 l 105 359 l 112 621 l 111 706 l 114 830 l 114 904 q 128 950 114 950 z "},"m":{"ha":1147,"x_min":50,"x_max":1072,"o":"m 63 -15 l 50 -5 l 66 109 l 99 304 l 133 549 q 182 876 159 725 l 192 937 l 204 952 l 246 949 l 302 949 l 349 945 l 384 949 q 395 906 393 939 l 408 859 l 429 779 q 507 511 471 634 l 533 433 l 551 374 q 572 298 563 334 l 580 286 l 608 385 q 668 646 650 540 q 715 857 696 788 q 737 938 723 895 l 741 941 l 744 941 q 770 943 758 943 q 823 940 804 943 l 828 941 l 868 941 l 913 941 l 944 937 q 966 791 947 907 q 990 624 975 718 l 1029 321 q 1072 -9 1050 121 l 1046 -9 l 989 -6 l 966 -7 l 881 -7 l 878 -3 l 871 7 l 848 363 l 843 429 l 838 473 l 827 633 q 794 514 815 633 q 748 337 772 416 l 726 262 q 686 71 696 134 l 671 12 l 661 -17 l 591 -14 l 481 -11 q 460 33 472 -11 q 414 227 439 143 l 396 302 l 380 370 l 362 456 l 300 648 l 293 631 l 290 599 l 279 456 l 277 396 l 273 361 l 270 333 q 257 177 261 260 l 248 144 l 252 141 l 252 138 l 246 91 l 245 74 l 245 67 l 241 53 l 245 50 q 234 -11 245 16 l 187 -13 l 146 -14 l 63 -15 z "},"n":{"ha":976,"x_min":90,"x_max":874,"o":"m 114 935 l 205 928 l 268 927 q 296 879 284 912 q 437 663 316 853 l 508 561 q 656 328 549 511 q 688 279 663 328 l 701 268 l 702 289 l 702 293 l 701 323 l 701 441 l 702 458 l 703 611 l 702 628 l 699 758 l 699 795 l 699 823 l 699 882 l 695 924 l 709 931 l 789 931 q 814 932 803 932 q 864 912 864 932 l 864 843 l 859 644 l 860 610 l 857 589 l 857 406 l 860 317 l 860 293 l 862 163 l 866 120 l 874 14 l 850 0 l 713 -1 l 696 8 q 466 363 629 130 l 311 593 q 261 670 272 644 l 251 659 l 254 434 l 251 423 l 254 370 l 254 243 l 258 222 l 258 155 l 264 109 l 265 3 l 258 -8 l 178 -12 l 163 -11 l 155 -9 l 139 -9 l 92 -14 l 90 -7 l 92 102 l 100 455 l 103 543 l 103 631 l 106 638 l 103 646 l 106 688 l 106 829 l 106 846 l 106 861 l 106 878 l 103 917 l 103 920 l 114 935 z "},"o":{"ha":1038,"x_min":41,"x_max":969,"o":"m 496 968 l 517 964 l 521 968 q 711 919 581 968 q 842 817 810 858 l 870 781 q 969 503 955 659 l 966 503 l 969 499 l 969 439 q 913 241 955 323 q 711 37 865 124 l 652 9 l 556 -9 l 553 -5 l 535 -9 q 313 37 421 -9 l 252 67 q 165 150 218 90 q 45 418 81 236 l 41 460 l 41 517 q 87 696 65 667 q 133 785 87 711 q 165 823 143 785 q 341 940 267 911 q 475 964 408 961 l 496 968 m 186 503 l 193 421 q 271 252 218 302 q 389 174 306 212 l 449 151 l 507 146 q 736 245 619 146 l 761 277 q 803 335 785 297 q 836 496 836 404 q 835 517 836 506 l 806 629 q 761 703 770 677 l 666 774 l 620 795 l 564 817 l 560 813 l 556 813 l 503 820 q 370 795 412 812 q 200 594 256 743 l 186 503 z "},"p":{"ha":935,"x_min":98,"x_max":880,"o":"m 366 952 l 412 956 q 694 928 652 949 q 807 850 755 911 q 880 628 878 770 l 878 593 q 775 416 842 456 q 593 365 711 376 l 504 359 l 404 360 l 309 357 q 284 339 284 348 l 280 236 l 281 173 l 278 159 l 285 130 l 281 113 l 287 28 l 287 15 l 271 -7 l 134 0 l 114 1 l 106 7 l 105 50 l 107 255 l 111 269 l 106 319 l 108 334 l 107 354 l 107 463 l 100 632 l 101 718 l 104 761 l 104 774 l 98 899 l 103 934 l 124 953 l 366 952 m 267 795 l 264 791 l 260 772 l 264 744 l 263 648 l 260 578 l 260 543 q 271 522 260 531 l 370 526 l 433 529 l 447 529 l 472 526 l 549 526 l 595 532 l 627 536 q 711 589 670 536 l 724 616 l 722 638 l 729 663 q 684 755 729 701 q 599 790 652 778 l 475 797 l 387 800 l 376 797 l 267 795 z "},"q":{"ha":1074,"x_min":44,"x_max":1002,"o":"m 538 982 l 541 982 l 559 979 q 760 917 659 971 q 949 718 860 862 q 999 492 999 604 l 999 488 l 1002 474 l 996 435 l 999 432 q 946 256 999 377 q 932 227 939 256 q 784 73 860 117 l 743 44 l 739 31 l 739 20 l 749 -33 q 794 -98 765 -98 q 802 -97 798 -98 l 838 -97 l 855 -94 l 862 -129 l 861 -193 l 859 -231 q 848 -238 859 -238 q 633 -161 684 -238 q 583 -2 602 -109 l 530 -5 l 530 -2 l 527 -5 l 456 -5 q 283 44 400 2 l 185 115 q 83 288 98 223 q 56 373 68 311 q 44 507 44 446 q 56 624 44 571 l 62 647 q 150 806 84 717 q 330 940 264 928 q 538 982 432 982 m 474 817 l 471 820 l 467 820 q 312 749 404 820 q 206 559 223 657 q 199 503 199 544 l 199 460 q 294 235 199 334 q 351 199 327 199 q 453 146 351 174 l 495 139 l 517 138 l 538 139 l 541 139 q 749 245 692 173 q 844 467 844 341 l 841 471 l 844 488 q 749 714 844 602 q 682 770 726 740 q 576 813 642 805 q 513 823 576 820 l 474 817 z "},"r":{"ha":1011,"x_min":102,"x_max":958,"o":"m 122 951 l 125 951 l 210 952 l 274 949 l 295 952 q 559 941 518 948 l 563 941 q 859 769 801 930 q 880 638 880 708 q 835 513 870 559 q 785 476 815 489 q 764 458 774 465 l 764 452 q 818 411 785 435 q 863 311 851 371 q 888 191 878 260 l 892 174 l 897 138 l 901 114 q 958 3 920 43 l 958 0 l 951 -11 l 882 -5 l 835 -11 l 815 -9 l 803 -7 q 725 180 759 -7 l 719 220 l 709 279 l 701 318 l 678 357 q 545 420 638 397 l 524 416 l 521 416 l 429 420 l 376 416 l 345 417 l 283 414 l 278 404 l 277 289 l 279 211 l 281 176 l 280 153 l 281 134 q 292 -7 284 55 l 263 -7 l 251 -8 l 220 -9 l 195 -9 l 102 -14 q 104 33 102 9 l 106 54 l 106 73 l 108 121 l 108 174 l 111 241 l 111 262 q 113 347 111 307 l 115 487 l 115 529 l 116 632 l 117 661 l 119 751 l 119 763 l 119 779 l 119 852 q 117 889 119 878 l 115 902 l 115 944 l 122 951 m 277 797 l 277 770 l 275 735 l 274 684 l 277 649 l 274 585 l 277 575 l 431 575 l 475 568 l 515 571 l 565 571 q 713 624 683 571 q 730 684 730 650 q 726 723 730 694 q 645 790 722 751 l 625 787 q 601 797 625 793 l 318 800 l 294 800 l 277 797 z "},"s":{"ha":861,"x_min":35,"x_max":796,"o":"m 302 972 l 326 971 l 359 979 l 395 974 l 421 978 l 447 972 l 450 972 q 637 880 585 928 q 764 732 735 796 l 764 714 l 719 675 l 676 644 q 635 690 661 644 q 528 795 579 760 q 380 846 440 840 q 269 813 304 842 q 232 711 232 791 l 243 680 l 262 648 q 336 597 290 620 l 546 525 q 796 245 796 429 q 740 100 779 146 q 543 -5 692 30 l 479 -5 l 458 -9 q 271 33 373 -2 l 176 79 q 62 178 176 87 q 35 212 45 199 l 37 227 q 144 302 56 249 l 159 301 q 323 168 249 189 q 454 136 420 136 q 611 177 576 144 q 643 233 643 216 l 643 244 q 611 315 643 283 q 500 393 611 334 q 397 425 463 411 q 302 456 374 439 q 190 520 212 503 q 80 658 114 561 l 70 721 q 190 929 70 834 q 302 972 238 955 z "},"t":{"ha":810,"x_min":26,"x_max":771,"o":"m 267 970 l 454 963 l 460 963 l 490 967 l 641 954 l 715 952 l 763 953 l 771 945 l 771 931 l 768 878 l 771 867 l 764 804 l 768 787 l 750 776 l 701 779 l 690 779 l 654 776 l 534 783 q 471 762 471 783 l 471 606 l 468 518 l 471 508 l 468 490 l 468 346 l 466 334 l 471 292 l 471 99 l 469 75 l 477 -5 l 469 -14 l 422 -7 l 409 -11 l 368 -9 q 294 -18 330 -12 l 291 -18 q 284 -7 284 -18 l 292 112 l 294 138 l 304 384 l 298 419 l 298 422 l 306 540 l 302 557 l 309 741 l 311 770 l 303 779 l 249 779 l 203 783 l 143 779 q 54 774 89 779 l 33 774 l 26 781 l 31 812 l 26 833 l 34 862 l 27 901 l 32 945 q 71 966 32 966 l 76 966 l 267 970 z "},"u":{"ha":936,"x_min":104,"x_max":814,"o":"m 149 964 l 251 959 l 260 946 q 255 843 255 928 l 256 340 q 273 262 260 307 l 315 192 q 441 133 382 139 l 504 138 q 610 198 589 155 q 640 241 633 218 q 659 330 657 279 l 657 351 q 665 570 665 381 l 662 721 q 663 832 663 783 q 661 950 663 906 l 665 954 l 682 954 l 710 958 l 735 954 l 763 958 l 781 954 l 809 956 l 812 945 l 814 899 l 812 831 l 810 377 l 804 309 q 755 140 793 198 q 623 23 692 54 q 471 -9 536 -9 q 292 26 366 -9 q 248 50 255 37 q 142 161 219 51 q 104 344 104 238 l 106 630 l 104 885 l 106 900 l 104 934 l 105 956 q 149 964 107 961 z "},"v":{"ha":809,"x_min":22,"x_max":792,"o":"m 26 945 l 45 947 l 123 941 l 172 945 l 184 935 q 317 529 197 872 q 354 399 321 529 q 394 282 375 333 l 401 282 l 433 381 l 430 391 q 476 543 476 522 q 529 681 486 544 q 574 811 541 697 l 624 941 l 663 936 l 701 938 l 784 935 l 792 922 q 751 811 771 871 q 691 642 715 728 q 578 317 673 614 q 553 240 568 306 l 479 18 l 465 7 l 402 3 l 331 0 l 257 216 l 239 256 l 229 283 l 208 356 q 95 694 172 428 l 22 925 l 26 945 z "},"w":{"ha":1208,"x_min":39,"x_max":1165,"o":"m 1123 952 l 1133 949 l 1144 952 q 1165 935 1165 948 l 1112 712 l 1084 585 l 1074 571 l 1077 568 l 1077 564 q 949 26 1003 279 l 947 3 l 939 -18 l 897 -14 l 841 -14 l 795 -11 l 760 -14 q 728 148 751 -4 q 645 507 675 408 l 640 547 l 640 561 q 612 649 615 619 l 608 649 q 580 550 597 649 q 520 289 538 395 q 460 60 481 176 q 446 -3 450 53 l 442 -7 l 439 -7 q 389 0 389 -4 l 368 -7 l 357 -3 l 283 -7 l 277 -7 q 248 88 265 -7 q 189 311 210 249 l 115 614 q 52 846 58 814 q 39 914 39 891 q 52 939 39 937 l 115 941 l 125 938 l 142 941 l 190 942 l 203 931 l 216 871 l 298 543 l 298 532 l 354 286 q 357 284 356 284 q 397 391 374 284 q 442 571 418 500 l 439 582 q 503 864 481 730 l 506 875 l 503 878 q 540 939 515 939 l 543 939 l 576 941 l 689 945 q 709 868 698 945 q 735 723 724 857 q 795 476 739 723 l 850 284 l 863 286 l 869 312 l 904 500 l 922 568 l 918 571 l 918 575 q 956 760 932 602 q 1000 945 979 919 l 1123 952 z "},"x":{"ha":884,"x_min":27,"x_max":852,"o":"m 125 940 l 232 940 q 274 869 244 940 q 319 791 300 846 q 431 633 336 779 l 441 625 q 507 725 448 625 q 552 795 522 737 q 632 939 581 823 q 833 925 833 939 q 796 852 831 890 q 722 749 765 800 q 630 608 718 734 q 538 485 559 505 l 540 471 q 648 312 602 385 q 703 233 660 312 l 771 129 q 852 23 816 79 l 852 12 q 842 -9 852 -6 l 827 -9 l 795 -5 l 792 -9 l 789 -9 l 743 -2 l 739 -5 l 736 -5 l 644 -9 q 614 36 631 -9 l 591 60 l 569 115 l 517 206 q 443 333 481 256 l 436 333 l 415 298 q 340 168 415 278 l 288 79 q 228 -9 241 -5 l 80 -5 l 41 -9 l 27 9 l 27 26 q 143 188 79 89 q 207 302 207 287 q 239 340 224 305 l 309 450 q 330 492 330 473 q 189 700 277 553 l 73 859 q 37 929 37 900 q 125 940 37 940 z "},"y":{"ha":812,"x_min":-8,"x_max":816,"o":"m 314 437 l 306 460 q 193 617 239 543 q 147 684 177 629 q 102 749 134 699 q 70 802 83 772 q 7 898 25 863 l -8 920 q -3 937 -8 931 l 16 937 l 37 940 l 49 941 l 64 938 l 89 937 l 105 937 l 197 941 q 226 892 210 941 l 243 875 l 264 816 q 323 724 272 816 q 397 595 360 673 l 405 595 l 426 631 q 500 763 469 707 l 553 852 q 613 941 600 937 l 637 937 l 719 941 l 761 937 l 796 937 l 816 926 l 810 909 q 682 720 753 842 l 657 684 q 617 624 625 643 q 579 574 598 604 l 511 481 q 485 436 491 455 l 481 428 l 481 393 l 485 325 l 485 318 l 486 279 l 488 205 l 492 125 l 493 54 l 495 2 l 486 -9 l 446 -9 l 361 -13 l 330 -13 l 323 -6 l 323 15 l 319 54 l 323 108 l 320 157 l 319 257 l 319 325 l 316 414 l 314 437 z "},"z":{"ha":884,"x_min":35,"x_max":807,"o":"m 130 951 l 294 945 l 323 948 l 359 944 l 465 937 l 497 941 l 518 937 l 536 942 l 573 939 l 621 937 l 634 941 l 648 937 l 789 937 l 804 922 l 807 843 l 804 792 l 802 766 q 787 741 798 751 q 723 677 768 726 l 684 626 l 568 503 q 470 401 539 479 q 380 315 427 364 q 218 170 309 243 l 229 156 l 271 159 l 275 156 l 292 159 l 342 159 l 374 163 l 409 159 l 525 159 l 546 163 l 606 152 l 627 156 l 686 151 l 785 155 l 793 149 l 797 76 l 800 62 l 795 19 l 795 -1 l 786 -7 l 743 -5 l 718 -7 l 698 -7 l 648 -8 l 625 -9 l 598 -7 l 432 -12 l 405 -8 l 392 -9 l 340 -9 l 240 -11 l 199 -9 l 183 -11 l 151 -9 l 113 -9 l 92 -11 l 66 -11 l 45 -9 l 36 -9 l 35 15 l 45 174 l 45 181 q 116 268 45 208 q 307 456 154 315 l 538 697 q 572 728 538 704 l 593 752 l 600 761 l 612 775 l 623 787 l 614 796 l 602 794 l 570 794 l 508 791 l 473 790 l 443 787 l 384 789 l 374 785 l 356 789 l 249 779 l 224 783 l 126 778 l 119 785 l 119 857 l 123 879 q 116 930 116 895 q 130 951 116 951 z "},"¢":{"ha":1253,"x_min":68,"x_max":1185,"o":"m 827 703 l 833 703 q 952 656 901 669 l 971 654 l 1001 687 l 1002 680 l 1002 671 q 939 540 976 585 q 907 552 920 545 q 879 564 892 557 l 825 578 l 810 578 l 802 564 l 795 543 l 798 528 l 803 517 l 809 506 l 814 502 q 892 464 844 480 l 917 454 l 934 451 l 953 448 l 990 445 l 1002 450 l 1004 445 l 1004 437 l 1004 431 q 987 391 1004 396 l 941 396 l 930 393 l 928 386 l 930 328 l 932 307 l 933 292 l 930 271 l 929 250 l 928 239 l 924 203 l 920 182 l 918 168 q 912 127 916 148 q 906 71 909 98 q 898 3 903 23 l 892 -29 l 890 -43 l 890 -46 l 882 -77 l 880 -88 l 863 -141 l 860 -144 l 854 -144 q 838 -100 846 -144 l 835 -89 l 833 -79 l 828 -59 l 817 -7 l 808 44 l 806 55 l 803 77 q 792 157 795 116 l 791 161 l 785 229 l 781 269 l 780 277 l 779 288 l 779 302 l 781 315 l 783 336 l 785 351 l 787 366 l 787 378 l 788 392 l 785 394 l 774 396 l 757 397 l 738 396 l 738 401 q 784 456 767 426 l 784 469 l 779 515 l 779 524 q 827 703 779 614 m 529 692 l 532 692 q 637 602 585 661 q 678 532 678 544 l 697 475 l 699 446 l 699 433 l 697 418 q 679 326 692 359 q 650 273 665 294 q 629 247 635 252 q 595 207 624 242 q 569 179 585 197 q 513 136 554 163 l 486 111 q 457 74 471 95 q 420 14 431 45 q 382 52 399 38 q 333 81 353 76 l 327 84 l 323 87 l 321 76 l 321 53 l 322 39 l 323 31 l 323 21 l 323 14 l 323 5 l 324 -8 l 325 -16 q 350 -57 326 -50 q 372 -68 360 -64 l 380 -73 q 371 -113 376 -101 l 363 -111 q 343 -106 355 -110 l 320 -106 l 293 -109 l 263 -113 q 218 -120 240 -117 q 163 -135 197 -123 q 114 -151 130 -146 q 76 -163 90 -161 l 68 -122 l 100 -111 l 136 -99 q 157 -81 150 -92 l 160 -76 l 171 -57 l 174 11 l 174 33 l 176 98 l 176 113 l 176 123 l 176 137 l 174 153 q 75 203 138 180 l 68 206 q 111 304 68 223 q 122 326 116 318 l 171 301 l 174 301 q 177 317 176 306 l 179 331 l 176 461 q 168 515 173 500 l 168 518 q 117 562 121 553 l 117 567 l 125 567 l 179 559 q 372 605 222 559 q 529 692 466 635 m 320 488 l 319 456 l 319 434 l 318 412 l 319 380 l 320 368 l 321 336 l 323 297 l 326 282 q 342 217 326 232 q 450 168 373 191 l 488 163 q 552 209 544 193 q 584 268 574 234 l 586 274 l 591 331 q 578 407 586 376 l 572 431 l 553 467 q 496 540 530 511 q 475 556 487 545 q 458 570 467 562 q 429 583 437 583 l 419 587 l 412 589 l 405 589 l 393 591 q 320 505 320 578 l 320 488 m 1096 244 l 1128 205 q 1164 168 1145 188 q 1185 144 1179 156 q 1154 113 1183 138 q 1105 68 1122 83 l 1092 56 l 1088 57 q 1047 106 1064 87 q 1027 127 1042 111 q 1006 149 1012 138 q 1093 244 1093 230 l 1096 244 z "},"£":{"ha":1185,"x_min":68,"x_max":1117,"o":"m 844 552 q 885 498 851 549 l 934 444 l 934 441 q 895 398 906 408 q 850 351 893 393 q 779 433 808 408 q 747 392 760 433 l 750 321 l 749 305 l 749 295 l 750 288 l 749 237 l 749 221 q 761 205 753 209 l 814 170 l 823 170 l 858 208 l 861 208 l 893 175 q 826 129 856 164 l 798 98 l 785 85 q 770 68 777 79 q 741 34 755 52 l 716 63 l 694 83 l 680 94 l 664 106 l 644 121 q 622 136 625 134 q 614 139 619 137 q 597 148 608 141 l 586 152 l 568 161 l 571 166 l 592 177 l 601 182 l 616 195 l 615 201 l 614 209 l 613 221 q 612 248 612 236 l 612 257 l 611 270 l 611 275 q 612 306 611 290 l 612 328 l 612 347 l 613 357 q 612 368 612 362 q 613 381 612 374 l 613 397 q 594 433 609 427 l 570 428 l 546 412 q 544 412 545 412 q 538 425 538 412 q 569 461 562 453 q 592 484 577 469 q 613 505 605 498 l 624 517 l 633 528 l 638 534 q 657 549 648 547 q 701 517 672 545 q 741 451 732 484 l 744 433 l 747 433 q 839 547 760 444 l 844 552 m 319 543 q 346 516 338 523 q 382 491 355 509 l 403 478 q 437 458 422 471 l 492 425 l 519 410 l 521 406 q 493 391 505 396 q 478 359 481 387 l 477 343 l 478 332 l 477 315 l 478 308 l 479 289 l 478 278 l 478 275 l 479 268 l 478 264 l 478 256 l 479 222 l 480 215 l 481 196 l 482 173 q 481 172 481 172 q 503 164 481 166 q 534 118 530 145 q 538 91 536 113 l 538 72 q 497 -12 538 45 l 410 -110 l 374 -144 q 327 -142 355 -143 l 269 -140 l 248 -139 l 212 -138 l 123 -137 l 96 -137 q 90 -129 90 -137 l 144 -61 l 185 1 l 239 -1 l 339 -3 l 359 -4 l 380 -4 l 400 -5 l 417 -4 l 432 -4 q 489 15 489 2 l 489 23 q 479 35 489 28 l 467 39 l 465 39 q 440 45 454 43 l 435 45 l 421 47 q 348 104 365 47 l 345 121 l 345 170 q 308 138 315 142 l 298 129 l 281 115 q 234 73 260 90 q 191 45 217 53 l 188 45 q 150 61 182 45 q 117 88 132 74 l 98 113 q 87 137 91 130 l 85 142 q 74 170 83 148 q 68 237 68 214 q 68 250 68 245 l 71 270 q 77 286 71 275 q 109 363 85 314 l 117 378 q 148 418 138 408 q 196 457 158 429 q 275 511 235 481 q 319 543 297 524 m 226 435 q 191 387 205 414 q 177 338 185 378 l 177 332 l 174 302 l 180 264 l 180 262 q 241 180 222 182 q 269 170 253 172 l 280 168 l 286 167 l 288 167 q 344 195 303 167 l 342 221 l 342 251 l 342 262 l 341 286 l 340 311 l 340 349 l 339 359 q 308 390 324 380 q 269 414 291 399 l 261 420 l 253 425 q 226 435 243 434 m 1021 275 l 1057 228 q 1109 177 1077 203 l 1117 168 l 1107 156 q 1029 75 1063 112 l 1013 56 l 974 100 q 920 148 948 125 l 909 158 l 930 178 l 956 204 q 983 235 973 222 q 1021 275 1002 254 z "},"ª":{"ha":1742,"x_min":68,"x_max":1674,"o":"m 701 52 l 701 46 l 703 46 q 710 57 703 47 l 706 57 q 701 52 704 57 m 528 68 l 528 66 l 534 66 l 534 68 l 528 68 m 724 73 l 724 69 l 726 69 q 729 73 729 69 l 724 73 m 266 69 l 262 69 q 259 66 259 68 l 288 66 q 291 69 291 66 l 289 73 q 266 69 277 69 m 673 87 l 673 85 l 678 85 q 684 89 682 89 l 684 90 l 681 90 q 673 87 675 87 m 316 107 l 315 107 l 315 100 q 320 99 316 100 q 334 105 329 105 q 330 108 334 108 q 316 107 322 107 m 802 113 l 802 108 l 808 108 l 808 111 q 802 113 805 111 m 780 121 q 777 111 780 114 l 774 113 q 768 107 770 113 l 768 103 l 770 103 l 770 108 l 771 108 q 776 100 776 108 l 777 100 q 790 114 785 114 l 790 121 l 780 121 m 831 125 l 831 121 l 834 121 l 834 125 l 831 125 m 743 125 l 743 122 l 745 122 q 748 125 748 122 l 743 125 m 347 107 l 347 105 q 374 111 371 108 l 378 111 q 381 103 378 103 l 386 103 l 386 107 q 381 119 381 117 l 381 125 l 378 125 q 347 107 349 107 m 766 128 l 766 127 l 768 127 l 768 128 l 766 128 m 762 142 q 824 111 817 117 l 827 111 l 827 117 q 816 134 816 131 l 810 130 q 794 144 803 140 q 793 142 793 144 q 786 144 787 144 l 779 142 q 766 144 772 144 q 762 142 762 144 m 729 144 l 729 142 q 736 133 731 136 q 743 134 740 133 q 748 133 747 133 l 748 134 q 732 144 748 136 l 729 144 m 730 155 l 732 153 q 734 154 734 153 l 743 153 l 782 153 l 782 155 q 755 170 777 165 l 752 170 l 730 155 m 661 274 l 661 273 l 666 273 l 666 274 l 661 274 m 669 275 l 673 275 q 678 281 675 275 l 678 283 l 675 283 q 669 275 673 283 m 682 295 l 682 293 l 687 293 q 695 303 689 293 l 695 304 l 693 304 q 682 295 682 298 m 297 313 q 296 304 297 304 q 297 298 297 302 l 300 298 l 300 313 l 297 313 m 708 318 q 705 310 708 315 l 705 300 l 706 300 q 711 310 706 304 l 711 318 l 708 318 m 320 321 l 320 316 q 326 322 322 316 l 326 323 l 323 323 q 320 321 320 323 m 286 331 l 286 318 l 288 318 q 294 338 288 319 l 292 338 q 286 331 290 338 m 475 338 q 496 329 475 334 q 501 323 496 326 l 530 323 q 545 332 533 323 l 545 338 q 532 336 537 338 q 513 339 513 338 l 506 338 l 492 338 q 489 339 489 338 q 475 338 488 338 m 252 345 l 252 340 l 256 340 l 256 345 l 252 345 m 263 357 l 263 354 l 266 354 l 266 357 l 263 357 m 283 359 l 283 339 q 291 352 291 345 q 283 359 290 357 m 246 361 l 246 352 l 248 352 q 251 361 248 357 l 251 362 q 246 361 248 361 m 252 373 l 252 368 q 260 361 255 368 l 260 359 l 263 359 q 256 373 256 370 l 252 373 m 690 379 l 690 373 l 692 373 l 692 379 l 690 379 m 249 386 l 249 381 l 251 381 l 251 386 l 249 386 m 211 399 l 214 399 l 214 403 q 211 399 211 402 m 323 412 l 323 410 q 342 373 337 395 l 343 373 l 345 389 q 335 410 338 401 l 325 412 l 323 412 m 687 416 q 692 411 687 414 l 692 416 l 687 416 m 249 418 l 249 414 l 251 414 l 251 418 l 249 418 m 317 433 l 321 432 l 323 435 l 323 436 l 321 436 q 317 433 317 435 m 207 446 l 207 439 l 211 439 q 221 449 211 447 l 221 456 l 220 456 q 207 446 212 456 m 257 463 q 260 456 260 458 l 265 456 q 260 463 262 463 l 257 463 m 323 465 q 315 450 323 456 q 297 443 307 450 l 296 443 q 292 449 292 443 l 284 444 q 268 454 277 444 l 266 454 q 263 444 266 448 l 263 439 q 273 433 263 437 q 276 436 274 436 l 279 436 l 284 433 l 289 433 q 317 444 297 439 l 326 458 l 326 465 l 323 465 m 245 473 l 245 469 q 254 463 246 469 l 256 463 l 256 467 q 248 473 248 467 l 245 473 m 339 477 l 339 473 l 340 473 l 340 477 l 339 477 m 339 507 l 339 498 q 348 469 348 490 q 326 439 339 448 l 326 436 l 329 436 q 342 447 338 447 q 355 482 353 464 q 342 507 347 507 l 339 507 m 328 511 l 328 505 l 329 505 l 329 511 l 328 511 m 430 537 l 430 535 l 434 535 l 434 537 l 430 537 m 288 537 q 292 530 290 530 l 292 537 l 288 537 m 615 540 l 615 535 q 625 528 618 528 l 629 528 l 629 529 q 618 540 621 529 l 615 540 m 300 540 q 305 535 300 538 l 307 535 l 307 537 q 303 540 307 540 l 300 540 m 273 540 q 274 533 274 537 l 277 533 l 276 541 l 273 540 m 583 535 l 587 535 q 599 543 587 538 l 601 546 l 598 546 q 583 535 591 545 m 284 547 q 288 545 284 545 l 289 545 l 289 547 l 284 547 m 637 550 l 637 549 l 641 549 l 641 550 l 637 550 m 607 550 q 602 547 607 547 l 602 546 l 607 546 q 624 549 610 549 l 624 550 l 607 550 m 300 550 l 300 549 l 303 549 l 303 550 l 300 550 m 271 553 l 271 547 l 273 547 l 273 553 l 271 553 m 256 561 l 256 547 q 260 540 260 543 l 263 541 q 259 555 259 553 l 259 561 l 256 561 m 237 555 l 237 550 q 245 545 237 548 l 248 545 l 248 561 l 246 561 q 237 555 241 555 m 337 569 l 337 564 l 342 564 l 342 565 q 339 569 342 569 l 337 569 m 376 581 l 376 578 l 378 578 l 378 581 l 376 581 m 249 583 l 249 578 l 251 578 l 251 583 l 249 583 m 249 589 l 249 586 l 251 586 l 251 589 l 249 589 m 292 601 q 296 597 293 597 l 296 601 l 292 601 m 427 608 l 427 606 l 435 606 q 432 608 435 608 l 427 608 m 454 610 l 451 606 l 458 606 q 460 608 460 606 q 454 610 457 608 m 237 610 q 231 604 237 604 l 231 602 l 239 602 l 239 610 l 237 610 m 294 611 l 294 608 l 296 608 l 296 611 l 294 611 m 218 611 l 218 608 l 221 608 l 221 611 l 218 611 m 401 616 l 401 612 l 406 612 q 404 616 406 616 l 401 616 m 233 619 q 235 616 233 616 l 235 619 l 233 619 m 479 623 l 479 621 l 481 621 l 481 623 l 479 623 m 193 637 l 193 618 l 195 602 l 199 602 l 199 612 l 195 618 l 195 623 q 197 623 195 623 q 195 637 195 631 l 193 637 m 503 639 l 503 636 l 506 636 l 506 639 l 503 639 m 297 639 l 297 636 l 298 636 l 298 639 l 297 639 m 435 642 l 435 637 l 438 636 l 438 637 q 437 642 437 640 l 435 642 m 284 643 l 288 643 l 288 646 q 284 643 284 645 m 432 651 l 432 643 l 435 643 l 434 651 l 432 651 m 390 651 l 390 650 q 404 631 393 631 q 414 627 410 627 l 414 629 q 390 651 396 651 m 511 653 l 511 646 l 511 646 q 520 659 511 651 l 517 660 q 511 653 512 653 m 488 669 q 473 654 488 661 l 473 650 l 479 650 q 492 667 486 655 l 488 669 m 570 675 l 570 673 l 573 673 l 573 675 l 570 675 m 574 676 l 580 676 l 580 679 l 577 679 q 574 676 574 679 m 326 679 l 326 675 q 357 654 328 670 q 359 650 357 650 l 362 650 q 348 676 362 656 l 339 675 q 326 679 330 679 m 715 684 l 715 679 l 720 679 l 720 684 l 715 684 m 316 684 l 316 678 l 317 678 l 317 684 l 316 684 m 203 688 l 203 676 q 201 662 203 671 l 207 654 l 207 643 l 211 643 q 207 667 207 663 l 211 673 q 203 688 207 688 m 305 693 l 303 690 l 303 684 l 305 684 q 308 686 308 684 l 308 690 q 305 693 308 693 m 398 717 l 398 709 l 401 707 l 399 717 l 398 717 m 289 717 q 286 709 289 714 l 286 707 q 296 693 292 693 l 296 709 l 292 713 q 296 717 296 713 l 289 717 m 342 720 l 342 718 l 347 718 l 347 720 l 342 720 m 395 724 l 395 717 l 396 717 l 396 724 l 395 724 m 530 726 l 530 724 q 538 730 537 726 l 534 730 q 530 726 533 730 m 395 732 l 395 726 q 399 728 398 728 q 396 732 399 732 l 395 732 m 555 692 q 551 693 552 693 l 541 692 l 541 684 l 543 676 l 548 676 q 555 684 555 680 l 555 686 l 553 689 l 557 689 q 559 684 557 684 l 564 684 q 591 715 591 699 l 605 734 l 605 735 l 604 735 q 590 720 590 731 q 555 692 590 701 m 636 734 l 639 732 l 639 737 q 636 734 636 736 m 353 739 q 350 734 353 737 l 355 734 l 355 739 l 353 739 m 249 743 l 249 740 l 256 740 l 256 743 l 249 743 m 517 747 l 517 743 l 520 743 l 520 747 l 517 747 m 389 748 l 390 740 q 393 743 393 740 l 393 748 l 389 748 m 530 740 l 532 740 q 548 749 548 748 l 543 749 q 530 740 530 743 m 376 751 l 376 748 l 378 748 q 376 751 378 751 m 263 751 l 263 748 l 265 748 l 265 751 l 263 751 m 328 753 l 328 749 l 329 749 l 329 753 l 328 753 m 674 754 l 674 748 q 686 740 686 748 l 690 740 q 700 749 690 743 l 693 754 l 674 754 m 281 754 l 281 751 l 284 751 l 284 754 l 281 754 m 268 760 l 268 757 l 269 757 l 269 760 l 268 760 m 571 765 l 571 762 l 574 762 l 574 765 l 571 765 m 207 722 l 207 718 l 210 718 q 228 722 213 722 q 229 717 229 720 l 235 717 q 242 715 240 717 q 256 724 252 724 l 256 730 l 254 730 q 246 726 248 726 q 237 734 245 730 q 246 754 245 742 q 251 757 251 754 l 251 765 q 207 722 230 741 m 424 772 q 412 743 420 765 l 412 718 q 410 717 412 717 q 421 684 413 705 l 421 676 l 430 676 l 430 679 q 422 705 427 684 l 422 709 q 424 715 422 711 q 422 717 424 717 q 434 768 422 722 l 432 768 q 424 772 429 768 m 271 772 l 271 765 l 273 765 l 273 772 l 271 772 m 252 772 q 251 768 252 770 l 256 768 l 256 772 l 252 772 m 637 777 l 637 772 q 641 774 641 772 l 637 777 m 567 777 l 567 774 l 568 774 l 568 777 l 567 777 m 674 794 l 674 792 l 678 792 l 678 794 l 674 794 m 316 794 l 316 789 l 317 789 l 317 794 l 316 794 m 669 799 q 673 795 669 795 l 673 799 l 669 799 m 513 753 l 513 749 l 515 749 q 552 764 526 756 q 573 800 552 774 l 573 802 l 570 807 l 558 805 q 552 807 553 807 q 513 753 533 792 m 437 808 l 435 805 l 435 800 l 444 800 l 444 802 q 437 808 441 802 m 581 810 l 581 804 q 585 807 585 804 l 585 810 l 581 810 m 637 812 l 637 807 l 649 807 q 666 800 653 804 l 669 800 l 669 802 q 663 807 663 802 l 653 807 q 637 812 650 810 m 555 819 l 555 815 l 564 815 q 558 819 564 817 l 555 819 m 589 822 l 589 819 l 590 819 l 590 822 l 589 822 m 398 824 l 398 821 l 399 821 l 399 824 l 398 824 m 574 829 l 574 826 l 580 826 l 580 829 l 574 829 m 376 833 q 371 795 371 810 l 371 768 q 376 757 376 762 l 378 757 q 381 760 381 757 q 378 764 378 760 q 376 792 378 774 q 378 821 378 808 q 381 824 381 821 l 381 830 q 378 833 381 833 l 376 833 m 646 838 l 642 840 q 622 833 622 836 q 629 830 629 833 l 629 829 q 624 824 629 827 l 615 824 q 595 832 610 824 l 589 832 l 589 830 q 615 821 604 822 q 619 815 616 815 l 624 815 q 635 822 624 822 l 644 822 q 686 799 673 814 q 706 765 692 792 q 708 764 708 765 l 705 759 q 711 745 707 759 l 715 745 l 715 754 l 706 779 l 669 830 l 669 832 l 671 838 q 669 844 669 842 l 653 844 q 646 838 648 838 m 398 847 l 398 844 l 399 844 l 399 847 l 398 847 m 447 851 l 447 848 l 450 848 l 450 851 l 447 851 m 350 851 l 350 848 l 353 848 q 350 851 353 851 m 283 827 l 283 824 q 289 813 289 818 l 292 813 l 292 817 l 289 821 l 289 826 q 294 830 289 829 q 302 813 302 824 l 303 813 q 335 842 304 822 l 342 842 l 342 838 l 347 838 l 347 840 q 340 850 342 840 l 321 851 l 316 851 q 283 827 299 846 m 637 852 l 636 850 l 636 848 l 647 848 l 647 851 q 637 852 646 851 m 478 854 q 479 848 479 851 l 483 848 l 483 850 q 481 854 481 852 l 478 854 m 440 863 l 440 855 l 441 855 l 441 863 l 440 863 m 595 864 l 595 863 q 604 855 604 859 l 615 855 l 621 848 l 621 858 l 615 858 q 595 864 609 858 m 340 865 q 347 861 340 863 q 359 864 347 864 l 359 865 l 340 865 m 326 863 l 326 859 q 337 864 330 859 l 337 865 l 335 865 q 326 863 329 863 m 463 867 l 463 864 l 466 864 l 466 867 l 463 867 m 362 864 l 367 864 q 376 867 372 867 l 376 868 l 367 868 q 362 864 365 868 m 463 874 l 463 868 q 466 872 466 868 l 463 874 m 381 877 q 389 869 381 874 q 393 876 389 872 q 395 874 395 876 q 408 879 408 876 q 399 880 402 879 q 381 877 396 877 m 410 879 l 415 879 l 415 882 l 414 882 q 410 879 410 881 m 555 885 l 555 876 l 558 869 l 558 855 q 566 854 559 855 l 566 855 l 562 867 l 562 872 q 568 879 562 875 l 570 879 q 573 876 573 878 l 573 874 l 570 868 l 570 865 q 583 851 576 854 l 585 854 l 583 858 q 585 863 585 861 q 568 885 576 882 l 555 885 m 477 883 q 492 872 477 880 l 492 868 l 486 861 l 486 859 l 488 859 q 530 876 492 865 l 534 876 q 543 864 543 871 l 549 864 q 553 874 549 868 q 545 882 548 874 l 538 882 q 513 893 520 886 l 511 893 l 477 883 m 446 885 l 446 882 l 451 882 l 472 894 q 477 893 473 894 l 486 894 q 483 897 486 897 q 447 885 469 897 l 446 885 m 492 900 l 492 897 l 494 897 q 498 900 498 897 l 498 902 l 496 902 q 492 900 492 900 m 393 58 l 395 55 l 398 57 l 421 57 q 437 53 424 57 q 515 63 442 53 l 515 64 q 501 66 501 64 l 485 64 l 450 64 q 432 66 443 64 q 427 64 429 64 q 415 66 421 66 q 410 64 413 66 q 347 80 364 69 l 350 82 l 396 76 l 399 77 l 404 76 q 409 77 406 76 l 418 76 l 422 77 q 443 75 429 75 l 452 75 q 460 76 456 75 l 463 75 q 479 77 477 76 q 513 75 486 76 q 536 77 526 77 l 559 77 q 679 98 616 77 q 715 114 695 108 l 726 114 q 734 123 726 116 l 716 136 q 659 184 701 136 q 652 197 659 190 q 627 253 627 239 q 624 268 627 257 l 624 286 l 621 286 l 615 275 q 585 237 615 268 q 564 214 578 222 q 528 200 547 200 l 511 200 q 440 216 477 204 q 371 258 399 236 l 371 265 q 374 268 372 268 q 425 237 391 251 q 454 227 427 236 q 494 214 460 222 q 501 216 496 216 q 511 212 507 212 l 515 212 q 559 228 545 217 q 649 345 616 284 l 669 388 q 688 473 684 432 l 688 493 q 690 498 688 496 q 688 505 688 500 q 712 569 699 531 l 712 602 l 713 611 q 712 616 712 614 q 713 619 712 619 l 712 636 l 712 648 q 686 724 699 699 q 661 731 661 728 l 629 723 q 607 689 621 715 q 589 672 603 689 q 556 656 568 657 l 534 656 l 530 659 q 496 611 508 616 q 452 594 475 597 q 440 593 450 593 q 399 606 412 597 q 378 590 379 595 l 378 586 q 382 583 379 583 l 383 583 q 408 589 390 589 q 409 587 409 589 l 422 590 q 508 561 486 580 l 508 559 q 503 555 508 555 q 452 575 496 555 q 447 573 450 573 q 437 578 437 575 l 434 576 l 417 578 l 401 575 q 396 576 398 576 l 382 573 q 380 575 382 575 q 364 562 380 570 q 352 554 364 554 q 335 547 352 551 l 317 553 l 311 546 l 311 545 q 332 524 332 534 q 361 498 342 524 l 364 484 q 353 450 364 467 q 338 435 353 445 q 311 424 338 429 l 311 420 q 317 419 313 420 q 332 422 328 420 q 364 388 364 416 l 364 380 q 334 335 364 351 q 328 323 328 334 q 332 319 330 323 l 326 311 q 342 290 327 302 q 345 283 342 287 l 345 271 l 364 216 q 378 178 370 192 q 387 149 378 167 q 396 100 395 123 q 391 80 395 80 q 380 87 383 87 q 373 83 376 83 q 307 94 307 91 q 304 98 304 94 l 305 100 q 297 106 297 103 q 332 117 302 111 l 378 134 l 378 136 q 352 204 372 162 q 337 253 345 231 l 337 267 q 317 275 337 270 l 299 286 l 294 286 l 294 284 l 266 295 l 264 300 q 256 323 256 315 q 224 349 254 323 q 208 381 218 371 l 197 423 l 197 426 q 195 439 195 435 q 221 469 199 469 l 221 471 q 197 511 221 496 q 184 541 193 535 q 178 562 178 547 l 178 565 l 189 593 q 182 618 184 597 q 199 720 186 690 q 197 728 199 721 l 218 749 q 241 782 241 770 q 292 846 264 821 q 362 877 324 877 q 393 890 367 880 l 399 890 q 415 894 405 890 q 425 890 422 890 l 430 890 q 452 899 439 897 q 492 913 463 909 q 512 909 511 911 l 539 905 q 675 845 612 888 l 681 833 q 727 759 723 783 q 726 758 727 758 l 727 749 l 727 741 q 726 723 727 734 q 748 704 726 718 q 765 667 762 686 q 752 623 765 641 l 752 616 q 760 587 755 612 q 755 565 758 565 l 758 562 l 758 561 q 734 535 758 547 q 703 511 722 511 l 699 489 l 701 477 q 698 459 698 463 q 701 447 698 456 q 693 430 693 434 l 693 429 q 707 397 701 429 q 708 396 708 397 l 708 389 q 701 368 703 372 l 701 366 q 722 323 720 346 q 690 271 722 291 q 669 260 682 271 q 663 258 664 258 q 647 260 655 260 q 641 256 647 256 l 641 243 l 666 197 q 710 153 707 153 l 713 153 q 749 175 739 174 q 754 179 749 177 q 771 176 769 176 l 777 176 q 782 168 777 168 l 782 172 q 780 174 781 172 l 779 175 l 795 184 q 805 176 805 177 q 816 178 810 178 q 825 176 821 178 q 836 169 836 172 l 836 166 q 816 163 835 163 q 814 161 816 161 q 808 163 811 163 l 802 157 q 816 144 816 155 q 828 127 820 144 l 831 127 l 831 131 q 824 150 831 136 l 821 153 l 820 155 q 825 157 824 157 q 833 150 828 156 q 847 125 838 142 q 864 113 848 116 q 868 114 867 114 q 837 158 868 124 l 837 160 l 842 161 q 873 128 856 157 l 876 117 l 873 113 q 892 106 873 108 q 926 92 915 98 q 956 71 947 80 q 988 40 972 63 q 1032 2 1008 21 q 1039 -11 1039 -7 q 1030 -16 1039 -16 l 1003 -7 q 992 9 997 -3 q 943 57 986 9 q 864 100 889 100 l 851 108 q 842 103 851 103 l 842 92 q 837 87 842 89 q 852 -1 852 56 q 854 -7 854 -1 q 847 -18 850 -18 l 837 -18 q 834 12 836 -18 l 834 68 q 821 100 830 89 l 820 100 l 817 90 l 817 79 q 799 31 810 68 q 791 7 796 30 l 791 5 l 771 -12 q 763 -14 766 -14 q 755 -11 759 -14 l 755 -7 q 800 85 799 63 l 800 106 l 774 68 l 766 71 q 730 -5 736 0 l 726 -5 q 721 4 723 -5 q 760 75 731 19 q 768 99 760 78 l 765 99 q 732 61 760 97 q 704 28 715 43 l 699 28 q 695 36 696 28 q 661 4 669 20 q 642 -7 655 4 l 636 -7 q 629 1 633 -7 l 629 4 q 674 44 642 27 q 710 71 701 66 q 721 75 719 75 l 755 103 q 760 108 755 108 l 760 111 l 758 111 q 745 105 751 105 q 743 106 745 106 q 698 82 743 102 q 653 64 677 71 q 591 36 619 46 q 570 29 591 31 q 488 9 543 20 q 454 1 456 1 q 452 2 452 1 q 413 -4 425 -3 l 396 -4 q 345 4 345 -4 l 345 5 q 362 12 345 10 q 368 11 364 12 q 444 18 429 14 l 447 16 l 526 31 q 583 50 556 36 l 586 49 q 642 69 602 52 l 646 69 l 646 73 l 641 73 q 634 69 637 69 q 530 55 608 69 l 526 57 l 485 45 q 434 43 442 43 q 408 36 429 40 q 347 33 351 33 q 337 40 337 36 q 347 43 342 43 q 391 44 387 44 l 391 45 q 380 50 388 45 q 368 49 372 49 q 364 50 364 49 l 325 45 l 320 45 q 289 50 289 45 l 277 49 l 276 49 q 252 57 252 50 q 254 60 252 58 q 256 64 256 63 l 237 64 l 237 61 l 169 35 l 241 36 q 243 35 243 36 l 246 36 l 289 39 q 302 33 302 36 q 299 27 302 30 l 291 28 q 241 20 291 26 q 237 24 241 24 q 117 12 117 20 q 119 9 117 10 q 127 1 127 4 q 119 -5 127 -3 q 85 -3 96 -3 l 81 -3 q 68 3 79 -3 l 83 18 l 214 63 l 220 64 l 219 64 l 249 75 q 282 82 252 77 q 288 80 286 80 q 289 82 288 82 l 281 94 l 281 96 q 284 99 281 99 l 288 99 q 302 68 302 85 q 300 61 300 65 q 302 60 302 61 l 305 61 l 307 61 q 313 60 311 61 l 317 61 q 329 58 322 58 l 350 58 q 362 57 356 58 q 376 58 370 58 l 387 58 l 389 57 l 393 58 m 438 356 q 454 349 446 349 q 498 354 464 349 l 509 354 l 532 349 q 543 354 539 354 l 555 354 l 567 348 l 568 348 q 574 349 571 348 q 581 345 581 348 l 581 340 q 559 319 559 326 q 518 301 559 303 l 504 300 q 483 306 498 304 q 441 335 469 321 l 435 342 q 438 356 435 345 m 517 411 q 539 399 532 411 l 539 394 q 536 391 539 391 l 534 391 q 515 395 530 391 l 511 394 q 500 399 500 395 l 500 399 q 517 411 504 408 m 427 569 l 435 567 l 444 569 q 450 562 446 562 q 471 564 463 564 l 471 559 l 466 559 l 466 555 l 473 558 q 477 554 477 557 q 475 549 475 550 q 486 537 475 547 l 486 533 q 477 526 486 531 l 463 526 q 458 530 460 526 l 463 537 l 463 540 l 454 540 q 434 526 454 529 l 429 526 q 418 530 420 526 l 418 533 l 422 538 l 422 546 l 418 546 q 415 543 415 546 q 418 538 418 540 l 412 535 q 404 546 404 538 q 386 540 391 546 l 387 537 l 387 535 q 381 532 387 532 q 366 540 368 538 l 366 541 q 376 547 366 544 q 374 553 374 550 q 422 567 374 561 q 427 569 426 569 m 658 583 l 673 583 q 705 569 692 583 q 698 562 705 566 q 679 570 689 570 l 678 570 l 668 569 q 666 570 666 569 q 622 562 636 567 l 622 561 l 644 561 q 659 555 646 561 l 664 559 l 668 554 l 666 546 q 668 545 668 546 q 681 547 675 547 l 682 545 l 682 541 q 674 537 682 537 l 682 526 q 658 517 682 522 q 653 523 656 517 l 654 530 l 654 533 l 652 533 q 627 515 652 519 q 625 514 627 514 l 624 514 q 604 535 610 522 q 595 532 595 535 l 598 524 l 593 523 l 583 523 l 574 521 q 571 496 574 513 q 583 422 576 448 q 581 418 581 419 l 583 410 q 553 385 583 396 q 551 387 551 385 l 551 393 q 573 412 565 401 q 558 490 566 433 q 608 567 558 538 q 658 583 631 583 m 1378 754 q 1388 743 1386 754 q 1381 736 1385 739 l 1378 736 q 1369 745 1369 736 q 1378 754 1369 752 m 941 565 q 939 569 939 566 l 939 574 q 943 578 940 578 l 951 578 l 951 587 q 975 606 951 606 l 978 606 q 992 599 989 606 l 992 595 q 985 591 992 592 q 977 592 978 592 q 971 588 971 590 l 971 578 l 977 578 q 985 574 985 576 l 985 568 q 981 564 985 566 l 971 564 l 971 522 q 962 507 970 507 q 951 517 954 507 l 951 564 l 947 564 l 941 565 m 910 752 l 913 752 q 922 742 922 752 l 922 727 l 932 727 q 938 722 935 727 l 938 719 q 932 713 938 717 l 922 713 l 922 681 q 928 671 922 671 l 937 672 l 939 672 q 943 667 941 672 l 943 664 q 924 656 943 658 q 903 685 903 656 l 903 713 q 893 718 893 713 l 893 722 q 903 727 893 726 l 903 734 q 910 752 903 750 m 1415 752 l 1421 752 q 1428 745 1423 752 l 1428 727 l 1438 727 q 1443 718 1443 724 l 1438 713 l 1428 713 l 1428 678 q 1434 671 1428 672 l 1442 672 l 1444 672 q 1449 667 1447 672 l 1449 664 q 1430 656 1449 659 q 1409 680 1409 656 l 1409 713 q 1398 718 1398 713 l 1398 723 q 1409 727 1400 727 l 1409 741 q 1415 752 1409 748 m 1175 603 l 1178 603 q 1185 592 1185 599 l 1185 578 l 1191 578 q 1198 574 1198 576 l 1198 568 q 1191 564 1197 564 l 1185 564 l 1185 526 q 1189 522 1185 524 q 1202 523 1196 523 q 1206 516 1206 518 q 1185 507 1203 507 q 1166 530 1166 507 l 1166 564 q 1155 572 1155 564 q 1166 578 1156 578 l 1166 593 q 1175 603 1166 603 m 1506 603 l 1513 603 q 1520 585 1520 601 l 1520 578 l 1525 578 q 1533 574 1533 576 l 1533 568 q 1525 564 1532 564 l 1520 564 l 1520 526 q 1524 522 1520 524 q 1536 523 1531 523 l 1539 518 l 1539 513 q 1521 507 1533 507 q 1500 523 1500 508 l 1500 564 q 1489 570 1489 564 l 1489 573 q 1500 578 1489 577 l 1500 593 q 1506 603 1500 600 m 950 728 l 956 728 q 978 677 962 728 l 979 677 q 1000 728 994 724 l 1007 728 q 1013 722 1010 728 q 972 633 982 633 q 961 631 968 631 l 951 631 q 942 636 944 631 l 942 642 q 946 646 942 643 l 960 646 q 968 660 964 646 q 943 720 955 690 q 950 728 945 726 m 1031 728 l 1036 728 q 1043 718 1043 725 q 1064 728 1054 728 l 1068 728 q 1097 698 1092 728 l 1097 687 q 1065 656 1091 656 q 1043 666 1055 656 l 1043 642 q 1036 631 1043 634 l 1029 631 q 1023 648 1025 631 l 1023 715 q 1031 728 1023 725 m 1141 728 l 1149 728 q 1179 697 1176 728 q 1161 687 1179 687 l 1128 687 q 1144 669 1130 669 l 1146 669 q 1169 681 1155 669 l 1174 681 q 1178 677 1176 681 l 1178 675 q 1146 656 1178 661 q 1109 687 1109 661 l 1109 694 q 1141 728 1113 728 m 1194 728 l 1200 728 q 1219 681 1204 728 l 1220 681 q 1238 728 1231 728 l 1246 728 q 1264 680 1253 728 l 1265 680 q 1284 728 1278 728 l 1286 728 q 1296 720 1296 728 q 1267 656 1276 656 l 1264 656 q 1242 703 1253 656 l 1240 703 q 1220 656 1231 656 l 1219 656 q 1197 694 1208 656 q 1187 722 1196 694 q 1194 728 1190 728 m 1313 728 l 1320 728 q 1325 719 1325 726 q 1339 728 1333 728 l 1344 728 q 1358 720 1353 728 l 1358 719 q 1353 711 1358 711 q 1336 712 1339 712 q 1326 691 1329 712 l 1326 667 q 1316 656 1326 660 q 1307 666 1308 656 l 1307 716 q 1313 728 1307 726 m 1378 728 l 1381 728 q 1388 718 1388 725 l 1388 667 q 1378 656 1388 660 q 1369 666 1369 656 l 1369 719 q 1378 728 1369 728 m 1484 728 l 1491 728 q 1522 697 1518 728 q 1504 687 1522 687 l 1471 687 q 1488 669 1474 669 l 1489 669 q 1513 681 1498 669 l 1516 681 q 1521 677 1518 681 l 1521 675 q 1489 656 1521 661 q 1451 687 1451 661 l 1451 694 q 1484 728 1455 728 m 1023 579 l 1032 579 q 1064 545 1060 579 l 1064 542 q 1028 507 1060 507 q 991 538 991 513 l 991 545 q 1023 579 996 579 m 1084 579 l 1090 579 q 1096 568 1096 577 l 1097 568 q 1117 579 1103 579 l 1124 579 q 1145 557 1141 579 l 1145 517 q 1135 507 1143 507 q 1125 518 1125 511 l 1125 551 q 1116 564 1125 564 l 1112 564 q 1097 551 1101 564 l 1097 518 q 1088 507 1097 511 q 1078 517 1079 507 l 1078 570 q 1084 579 1078 576 m 1236 579 l 1243 579 q 1268 562 1268 575 q 1259 555 1266 555 q 1239 567 1244 567 l 1236 567 q 1227 562 1229 567 l 1227 559 q 1264 545 1230 555 q 1273 530 1273 536 q 1239 507 1273 509 q 1207 527 1207 511 q 1214 534 1209 532 q 1231 522 1220 534 l 1239 520 l 1243 520 q 1253 530 1253 520 q 1219 543 1253 534 q 1209 558 1209 551 q 1236 579 1209 579 m 1335 579 l 1342 579 q 1348 568 1348 577 q 1369 579 1358 579 l 1374 579 q 1396 558 1396 576 l 1396 513 q 1386 507 1395 509 q 1377 522 1379 507 l 1377 554 q 1367 564 1377 564 l 1362 564 q 1349 543 1349 564 l 1349 517 q 1339 507 1348 507 q 1329 518 1329 511 l 1329 567 q 1335 579 1329 577 m 1447 579 l 1451 579 q 1482 549 1477 579 q 1467 538 1482 538 l 1431 538 l 1431 536 q 1448 520 1434 520 l 1450 520 q 1471 532 1458 520 l 1476 532 q 1480 528 1478 532 l 1480 527 q 1449 507 1480 512 q 1410 543 1410 511 q 1434 578 1410 567 q 1447 579 1441 579 m 1045 699 l 1045 686 q 1063 671 1045 673 q 1078 690 1078 675 l 1078 696 q 1060 715 1078 715 q 1045 699 1045 710 m 1128 699 l 1160 699 l 1160 702 q 1147 715 1158 715 l 1142 715 q 1128 699 1131 715 m 1471 699 l 1503 699 l 1503 702 q 1490 715 1501 715 l 1485 715 q 1471 699 1474 715 m 1010 547 l 1010 540 q 1027 522 1012 522 l 1028 522 q 1045 540 1042 522 l 1045 547 q 1027 566 1045 566 q 1010 547 1012 566 m 1431 551 l 1462 551 q 1453 566 1462 562 l 1444 566 q 1431 551 1433 566 m 1299 528 q 1310 517 1310 527 q 1301 507 1310 509 q 1289 517 1289 508 l 1289 522 q 1299 528 1293 528 m 1539 730 l 1545 730 q 1551 721 1551 730 l 1562 730 l 1570 730 q 1584 722 1579 730 l 1584 717 q 1577 711 1583 714 q 1566 714 1572 714 l 1565 714 q 1552 686 1552 714 l 1552 669 q 1542 658 1551 658 q 1533 670 1533 661 l 1533 717 q 1539 730 1533 727 m 1316 908 q 1496 857 1442 886 q 1577 807 1547 831 q 1674 635 1670 734 l 1674 630 q 1660 559 1674 594 q 1409 373 1607 432 q 1235 350 1321 350 q 1125 359 1179 350 l 1120 360 q 1013 385 1072 368 q 882 351 938 354 l 865 351 q 786 358 826 351 l 779 359 l 777 363 q 884 460 869 426 q 794 633 797 534 q 808 703 795 671 l 809 704 q 1038 883 859 823 q 1234 913 1135 913 q 1276 911 1255 913 q 1316 908 1281 911 m 817 696 q 803 633 803 661 q 812 589 803 609 q 863 493 818 549 q 896 459 895 463 q 790 365 878 424 l 791 363 q 845 361 817 361 q 926 366 884 361 q 1013 394 954 372 q 1125 370 1064 380 l 1126 370 q 1242 359 1185 359 q 1471 403 1360 359 q 1649 558 1609 463 l 1651 562 q 1664 631 1664 597 q 1592 781 1664 707 q 1358 892 1494 868 l 1351 893 q 1342 896 1346 894 q 1236 905 1289 905 q 1034 873 1135 905 q 817 696 866 812 z "},"Ä":{"ha":839,"x_min":4,"x_max":804,"o":"m 170 1246 l 296 1112 q 160 981 239 1063 l 152 981 l 53 1076 q 28 1105 28 1097 q 170 1246 29 1114 m 613 977 l 486 1111 q 623 1241 543 1159 l 631 1241 l 729 1146 q 754 1118 754 1125 q 613 977 753 1108 m 284 947 l 341 943 l 359 943 l 372 940 l 394 947 l 507 947 q 556 807 525 931 l 595 689 l 630 574 q 726 262 669 468 l 739 216 l 804 3 l 800 -4 l 751 -4 l 729 -6 l 634 -6 l 570 234 l 549 254 l 517 252 l 465 259 l 451 256 l 334 252 l 323 256 l 309 252 l 295 252 l 253 256 q 205 79 216 115 l 180 -9 q 100 -9 134 -9 q 4 -7 31 -9 l 12 20 l 22 46 l 33 77 l 41 98 l 48 122 l 54 149 l 72 204 l 95 292 q 228 778 176 566 l 274 943 l 284 947 m 394 772 l 342 575 l 337 532 q 301 418 313 488 l 303 412 l 334 410 l 366 406 l 517 406 l 524 410 l 496 481 l 492 503 l 429 689 q 404 772 412 730 l 394 772 z "},"Ë":{"ha":909,"x_min":84,"x_max":833,"o":"m 248 1251 l 375 1117 q 239 986 318 1068 l 231 986 l 132 1082 q 107 1109 107 1103 q 248 1251 108 1119 m 692 989 l 565 1122 q 701 1253 622 1171 l 709 1253 l 808 1158 q 833 1130 833 1137 q 692 989 832 1120 m 111 928 l 118 939 l 178 939 q 311 935 288 939 q 358 937 338 937 l 536 937 q 620 935 556 937 q 672 935 652 935 q 701 935 692 935 l 817 937 l 825 926 l 825 898 l 828 823 l 827 789 l 820 782 q 756 783 810 782 q 693 784 702 784 q 586 780 601 780 l 565 779 l 526 777 l 504 780 l 370 780 q 312 777 326 777 q 262 756 262 777 l 262 754 q 265 652 265 688 l 265 642 q 262 606 265 625 q 283 556 262 556 q 315 559 302 556 q 379 556 349 556 l 600 559 l 608 549 l 608 538 q 604 424 608 519 l 604 399 l 593 389 l 559 390 q 542 391 552 391 q 490 388 522 391 q 392 389 435 389 q 283 385 320 389 l 274 369 q 271 272 271 306 q 273 239 271 247 q 268 160 269 201 q 290 146 272 146 l 324 146 q 384 145 346 146 q 429 144 405 144 q 515 146 468 144 l 711 150 q 739 146 736 146 q 821 153 781 153 q 828 143 821 152 l 828 90 q 831 -7 828 59 l 821 -14 l 810 -14 q 736 -13 806 -14 l 490 -17 q 404 -14 469 -17 q 370 -15 394 -15 q 223 -10 323 -15 l 205 -14 q 152 -10 170 -10 l 119 -14 q 84 1 90 -11 l 87 18 l 87 58 q 96 283 96 137 l 96 341 l 98 414 q 104 470 104 451 q 101 506 104 493 l 109 619 l 105 673 q 109 773 109 745 q 108 884 108 866 l 111 928 z "},"Ï":{"ha":490,"x_min":-90,"x_max":532,"o":"m 51 1247 l 178 1114 q 41 983 121 1065 l 33 983 l -66 1078 q -90 1106 -90 1099 q 51 1247 -90 1116 m 391 984 l 263 1118 q 400 1249 321 1166 l 408 1249 l 507 1153 q 532 1125 532 1132 q 391 984 530 1115 m 314 931 l 317 917 l 315 869 l 314 800 l 311 720 l 308 646 l 307 608 l 304 385 l 308 231 l 307 196 l 308 162 l 311 74 l 310 1 l 302 -12 q 212 -9 269 -9 l 187 -8 l 166 -9 l 145 -9 l 134 2 l 134 182 l 138 220 l 134 249 l 138 267 l 138 464 l 141 485 l 138 513 l 141 602 l 141 668 l 142 767 l 145 908 l 145 929 l 152 937 l 184 937 l 269 932 l 314 931 z "},"Ö":{"ha":1040,"x_min":37,"x_max":965,"o":"m 275 1252 l 401 1118 q 265 987 345 1069 l 257 987 l 158 1082 q 134 1111 134 1103 q 275 1252 134 1120 m 718 983 l 591 1117 q 728 1247 648 1165 l 736 1247 l 835 1152 q 859 1124 859 1131 q 718 983 859 1114 m 492 961 l 513 958 l 517 961 q 707 912 577 961 q 838 810 806 851 l 866 774 q 965 496 951 652 l 962 496 l 965 492 l 965 432 q 909 235 951 316 q 707 31 861 117 l 648 2 l 552 -16 l 549 -12 l 531 -16 q 309 31 417 -16 l 248 60 q 161 143 214 83 q 41 411 77 229 l 37 454 l 37 510 q 83 690 61 661 q 129 778 83 705 q 161 817 139 778 q 337 933 263 905 q 471 958 404 954 l 492 961 m 182 496 l 189 414 q 267 245 214 295 q 385 167 302 205 l 445 144 l 503 140 q 732 238 615 140 l 757 270 q 799 328 781 290 q 831 489 831 397 q 831 510 831 499 l 802 622 q 757 696 766 670 l 662 767 l 616 789 l 559 810 l 556 806 l 552 806 l 499 813 q 366 789 408 805 q 196 587 252 736 l 182 496 z "},"Ü":{"ha":934,"x_min":85,"x_max":810,"o":"m 226 1252 l 353 1118 q 216 987 296 1069 l 208 987 l 110 1083 q 85 1111 85 1104 q 226 1252 86 1121 m 669 983 l 543 1117 q 680 1248 600 1166 l 687 1248 l 786 1152 q 810 1124 810 1131 q 669 983 810 1114 m 136 944 l 237 939 l 247 926 q 241 823 241 908 l 242 320 q 260 242 247 286 l 302 172 q 427 113 369 119 l 490 118 q 597 178 576 134 q 626 221 620 197 q 645 309 644 258 l 644 330 q 651 549 651 361 l 648 701 q 650 812 650 763 q 647 930 650 886 l 651 934 l 669 934 l 696 937 l 722 934 l 749 937 l 767 934 l 795 935 l 799 924 l 801 879 l 799 810 l 797 357 l 790 288 q 741 120 779 178 q 610 3 679 33 q 457 -29 523 -29 q 278 5 352 -29 q 235 30 241 17 q 129 140 205 31 q 90 323 90 218 l 93 610 l 91 865 l 93 880 l 91 913 l 92 935 q 136 944 94 941 z "},"ä":{"ha":836,"x_min":5,"x_max":805,"o":"m 171 1246 l 298 1112 q 161 981 241 1063 l 153 981 l 54 1076 q 30 1105 30 1097 q 171 1246 31 1114 m 614 977 l 488 1111 q 624 1241 545 1159 l 632 1241 l 730 1146 q 755 1118 755 1125 q 614 977 754 1108 m 286 947 l 342 943 l 360 943 l 374 940 l 395 947 l 508 947 q 557 807 526 931 l 596 689 l 631 574 q 728 262 670 468 l 741 216 l 805 3 l 802 -4 l 753 -4 l 730 -6 l 635 -6 l 572 234 l 550 254 l 519 252 l 466 259 l 452 256 l 335 252 l 325 256 l 311 252 l 296 252 l 254 256 q 206 79 218 115 l 182 -9 q 102 -9 136 -9 q 5 -7 32 -9 l 14 20 l 23 46 l 35 77 l 43 98 l 50 122 l 55 149 l 73 204 l 96 292 q 229 778 178 566 l 275 943 l 286 947 m 395 772 l 344 575 l 338 532 q 302 418 315 488 l 304 412 l 335 410 l 367 406 l 519 406 l 526 410 l 498 481 l 494 503 l 431 689 q 406 772 414 730 l 395 772 z "},"ë":{"ha":906,"x_min":85,"x_max":834,"o":"m 250 1251 l 376 1117 q 240 986 319 1068 l 232 986 l 133 1082 q 109 1109 109 1103 q 250 1251 109 1119 m 693 989 l 566 1122 q 703 1253 623 1171 l 711 1253 l 809 1158 q 834 1130 834 1137 q 693 989 833 1120 m 113 928 l 119 939 l 180 939 q 312 935 290 939 q 359 937 340 937 l 538 937 q 621 935 557 937 q 673 935 653 935 q 703 935 694 935 l 819 937 l 826 926 l 826 898 l 829 823 l 828 789 l 821 782 q 757 783 811 782 q 694 784 703 784 q 587 780 602 780 l 566 779 l 527 777 l 505 780 l 371 780 q 313 777 328 777 q 264 756 264 777 l 264 754 q 267 652 267 688 l 267 642 q 263 606 267 625 q 284 556 263 556 q 317 559 303 556 q 380 556 350 556 l 602 559 l 609 549 l 609 538 q 605 424 609 519 l 605 399 l 594 389 l 560 390 q 543 391 553 391 q 491 388 523 391 q 393 389 436 389 q 285 385 321 389 l 275 369 q 272 272 272 306 q 274 239 272 247 q 269 160 270 201 q 291 146 273 146 l 326 146 q 385 145 347 146 q 430 144 406 144 q 516 146 469 144 l 712 150 q 741 146 737 146 q 823 153 783 153 q 829 143 823 152 l 829 90 q 833 -7 829 59 l 823 -14 l 812 -14 q 738 -13 808 -14 l 491 -17 q 406 -14 471 -17 q 372 -15 395 -15 q 224 -10 325 -15 l 206 -14 q 153 -10 171 -10 l 121 -14 q 85 1 92 -11 l 89 18 l 89 58 q 98 283 98 137 l 98 341 l 100 414 q 106 470 106 451 q 102 506 106 493 l 110 619 l 106 673 q 111 773 111 745 q 109 884 109 866 l 113 928 z "},"ï":{"ha":487,"x_min":-89,"x_max":533,"o":"m 52 1247 l 179 1114 q 43 983 122 1065 l 35 983 l -64 1078 q -89 1106 -89 1099 q 52 1247 -88 1116 m 392 984 l 264 1118 q 401 1249 322 1166 l 410 1249 l 508 1153 q 533 1125 533 1132 q 392 984 532 1115 m 315 931 l 319 917 l 317 869 l 315 800 l 312 720 l 309 646 l 309 608 l 305 385 l 309 231 l 308 196 l 309 162 l 313 74 l 311 1 l 304 -12 q 213 -9 270 -9 l 189 -8 l 168 -9 l 146 -9 l 136 2 l 136 182 l 139 220 l 136 249 l 139 267 l 139 464 l 142 485 l 139 513 l 142 602 l 142 668 l 144 767 l 146 908 l 146 929 l 153 937 l 185 937 l 270 932 l 315 931 z "},"ö":{"ha":1037,"x_min":39,"x_max":966,"o":"m 276 1252 l 403 1118 q 267 987 346 1069 l 258 987 l 159 1082 q 135 1111 135 1103 q 276 1252 136 1120 m 720 983 l 593 1117 q 729 1247 650 1165 l 737 1247 l 836 1152 q 861 1124 861 1131 q 720 983 860 1114 m 494 961 l 515 958 l 518 961 q 709 912 578 961 q 840 810 808 851 l 867 774 q 966 496 952 652 l 963 496 l 966 492 l 966 432 q 910 235 952 316 q 709 31 862 117 l 649 2 l 553 -16 l 550 -12 l 532 -16 q 311 31 418 -16 l 250 60 q 162 143 215 83 q 42 411 79 229 l 39 454 l 39 510 q 85 690 62 661 q 130 778 85 705 q 162 817 140 778 q 338 933 264 905 q 473 958 405 954 l 494 961 m 183 496 l 191 414 q 268 245 216 295 q 387 167 303 205 l 446 144 l 505 140 q 734 238 616 140 l 758 270 q 800 328 783 290 q 833 489 833 397 q 832 510 833 499 l 803 622 q 758 696 767 670 l 663 767 l 617 789 l 561 810 l 557 806 l 553 806 l 500 813 q 367 789 410 805 q 197 587 254 736 l 183 496 z "},"ü":{"ha":934,"x_min":85,"x_max":810,"o":"m 226 1252 l 353 1118 q 216 987 296 1069 l 208 987 l 110 1083 q 85 1111 85 1104 q 226 1252 86 1121 m 669 983 l 543 1117 q 680 1248 600 1166 l 687 1248 l 786 1152 q 810 1124 810 1131 q 669 983 810 1114 m 136 944 l 237 939 l 247 926 q 241 823 241 908 l 242 320 q 260 242 247 286 l 302 172 q 427 113 369 119 l 490 118 q 597 178 576 134 q 626 221 620 197 q 645 309 644 258 l 644 330 q 651 549 651 361 l 648 701 q 650 812 650 763 q 647 930 650 886 l 651 934 l 669 934 l 696 937 l 722 934 l 749 937 l 767 934 l 795 935 l 799 924 l 801 879 l 799 810 l 797 357 l 790 288 q 741 120 779 178 q 610 3 679 33 q 457 -29 523 -29 q 278 5 352 -29 q 235 30 241 17 q 129 140 205 31 q 90 323 90 218 l 93 610 l 91 865 l 93 880 l 91 913 l 92 935 q 136 944 94 941 z "},"ÿ":{"ha":821,"x_min":-6,"x_max":818,"o":"m 187 1250 l 314 1116 q 177 985 256 1067 l 170 985 l 71 1081 q 46 1109 46 1102 q 187 1250 47 1119 m 630 981 l 503 1115 q 640 1246 561 1164 l 648 1246 l 747 1150 q 771 1122 771 1129 q 630 981 770 1112 m 316 412 l 308 435 q 195 591 241 517 q 149 658 179 603 q 104 721 136 672 q 72 774 85 744 q 9 869 27 834 l -6 890 q -1 908 -6 902 l 18 907 l 39 911 l 51 911 l 66 909 l 91 908 l 107 908 l 199 911 q 228 864 212 911 l 245 846 l 266 788 q 326 696 274 788 q 399 570 362 646 l 407 570 l 428 605 q 502 735 471 681 l 555 823 q 615 911 602 908 l 640 908 l 721 911 l 763 908 l 798 907 l 818 897 l 812 881 q 684 693 755 814 l 659 656 q 619 597 627 616 q 581 549 600 578 l 513 456 q 487 412 493 430 l 484 404 l 484 368 l 487 302 l 487 294 l 488 256 l 490 183 l 494 103 l 495 33 l 497 -18 l 488 -29 l 448 -30 l 363 -33 l 332 -33 l 325 -26 l 325 -5 l 321 33 l 325 86 l 322 136 l 321 235 l 321 302 l 318 390 l 316 412 z "},"Α":{"ha":1358,"x_min":68,"x_max":1291,"o":"m 72 765 q 203 652 72 699 q 359 628 289 628 q 395 605 363 628 q 509 564 460 564 l 511 564 l 511 564 q 455 630 477 581 q 572 656 532 642 q 694 765 694 702 q 555 880 694 835 q 382 904 471 904 q 117 838 221 904 q 72 765 72 803 m 372 908 l 395 908 q 632 854 526 908 q 698 767 698 812 l 698 764 q 555 645 698 692 q 461 627 506 632 q 516 566 480 587 l 516 561 q 513 558 516 560 q 361 623 446 558 q 179 656 277 623 q 68 763 68 702 l 68 770 q 149 863 68 818 q 372 908 252 908 m 696 613 l 704 613 q 798 521 753 613 q 819 492 812 496 q 939 395 911 423 q 991 382 983 391 l 1057 354 q 1089 317 1082 341 q 1097 301 1093 312 q 1085 297 1093 299 l 1085 296 q 1133 273 1095 294 q 1283 218 1262 241 q 1291 205 1291 210 l 1291 203 q 1289 201 1291 201 q 1260 209 1282 201 q 1259 203 1260 205 q 1171 227 1255 203 q 1107 240 1149 233 q 1202 173 1184 183 l 1270 136 l 1274 132 l 1274 128 l 1272 128 q 1262 130 1263 130 l 1262 125 q 1260 123 1262 123 l 1241 128 q 1234 127 1240 128 q 1223 134 1234 127 q 1217 124 1223 124 q 1198 132 1210 124 q 1195 126 1198 126 l 1193 126 q 1166 139 1187 126 q 1163 136 1166 138 l 1134 152 q 1131 150 1134 150 l 1129 150 q 1095 163 1101 163 q 1082 161 1086 161 l 1080 161 q 990 181 1074 161 l 980 182 q 952 168 961 182 l 950 167 q 912 181 920 181 q 905 178 905 180 l 909 176 q 905 173 909 173 l 914 164 q 910 161 910 163 q 911 160 911 161 l 905 159 q 909 130 909 143 l 907 128 q 905 130 907 130 q 886 94 905 121 q 871 47 871 50 q 869 39 871 43 q 871 26 871 33 l 871 20 q 878 13 871 18 q 888 15 882 13 q 907 -5 907 8 q 907 -13 907 -9 l 905 -14 q 890 5 898 5 l 884 5 q 879 -2 882 -1 q 860 5 874 -2 q 844 -16 855 -4 q 839 -23 844 -20 l 837 -23 l 829 -22 q 823 -41 823 -32 l 821 -41 l 821 -31 q 838 4 821 -24 l 828 -3 l 823 -3 q 819 1 821 -3 q 806 -9 817 1 l 806 -7 q 826 9 806 6 q 857 39 855 28 q 873 109 869 75 l 873 109 q 869 144 873 117 l 871 151 q 869 159 871 153 q 871 171 871 167 q 852 182 859 182 l 852 181 l 857 168 l 850 162 l 852 160 l 852 159 l 849 159 l 849 161 l 846 161 q 850 152 850 155 l 850 151 q 846 143 850 145 l 845 143 l 833 154 l 831 153 q 828 154 829 154 q 827 153 828 153 q 830 143 830 147 l 828 142 l 823 142 l 818 150 l 817 150 l 817 147 q 818 121 818 125 q 783 69 818 100 q 770 51 770 56 l 770 49 q 777 45 771 45 l 803 53 q 817 36 817 50 q 814 34 817 34 q 805 45 810 45 q 796 34 798 45 q 790 32 793 32 l 789 32 q 760 34 777 32 q 749 28 752 28 l 741 28 q 730 33 739 28 l 726 32 l 723 32 q 715 33 719 32 q 706 32 711 32 q 703 37 703 32 q 696 28 696 31 l 694 28 l 694 30 q 700 45 694 37 l 700 45 q 694 49 700 47 q 683 43 688 47 l 682 43 q 694 54 682 51 q 715 47 696 54 l 730 47 q 745 54 745 47 q 786 92 757 59 q 787 96 786 94 q 764 201 777 168 q 711 294 738 267 q 674 336 710 302 q 663 371 664 354 l 664 389 q 660 410 660 404 l 656 408 q 654 410 654 408 q 655 415 655 412 q 652 425 652 415 l 651 425 l 651 421 l 649 421 l 649 422 q 652 446 649 427 l 651 448 q 655 486 654 459 l 655 488 l 654 488 q 650 481 654 482 l 649 481 l 649 509 q 615 547 649 547 q 559 555 559 551 q 582 578 559 563 q 652 596 622 595 q 696 613 678 613 m 280 831 l 283 831 q 291 827 291 830 q 288 824 290 825 q 282 825 283 825 q 279 820 279 825 l 279 818 l 282 818 q 288 816 286 818 l 288 814 q 284 812 288 814 l 279 812 l 279 790 q 275 785 279 785 q 270 791 270 787 l 270 812 l 265 812 q 262 815 264 812 q 268 818 264 818 l 270 818 l 270 820 q 280 831 270 831 m 422 831 l 425 831 q 429 825 429 829 l 429 814 q 437 819 434 819 l 442 819 q 456 803 454 819 l 456 802 q 440 785 454 785 q 429 790 435 785 q 424 785 429 787 q 418 791 418 785 l 418 826 q 422 831 418 829 m 381 829 l 385 829 q 388 827 385 829 l 388 818 l 393 818 q 395 814 395 817 l 393 812 l 388 812 l 388 795 q 391 792 388 793 l 395 793 l 396 793 q 398 791 397 793 l 398 789 q 389 785 398 787 q 378 796 378 785 l 378 812 q 373 814 373 812 l 373 817 q 378 818 374 818 l 378 825 q 381 829 378 828 m 307 819 l 311 819 q 328 802 328 817 q 309 785 325 785 q 290 802 292 785 l 290 803 q 307 819 292 819 m 336 819 l 340 819 q 342 814 342 818 q 353 819 348 819 l 356 819 q 368 809 368 817 l 368 789 q 363 785 367 787 q 357 792 359 785 l 357 807 q 353 812 357 812 l 351 812 q 344 802 344 812 l 344 790 q 338 785 342 785 q 334 791 334 787 l 334 813 q 336 819 334 818 m 463 819 l 467 819 q 477 795 469 819 l 477 795 q 489 819 486 819 l 492 819 q 494 817 493 819 l 494 816 q 473 774 480 774 q 469 774 472 774 l 465 774 q 458 777 460 774 l 458 778 q 462 781 458 779 l 468 781 q 473 787 470 781 q 460 814 460 812 l 460 817 q 463 819 460 817 m 299 802 q 308 792 299 793 l 309 792 q 317 802 317 793 q 308 812 317 812 q 299 802 301 812 m 429 802 q 438 792 429 792 q 446 803 445 792 q 437 812 446 812 q 429 802 429 811 m 138 758 l 139 758 q 144 752 144 758 l 144 721 l 167 721 q 170 719 168 721 l 170 716 q 167 714 170 715 l 139 714 q 134 718 134 714 l 134 755 q 138 758 134 756 m 224 758 q 229 750 229 758 l 229 734 l 243 746 l 245 746 q 249 743 247 746 l 249 742 q 240 734 249 741 q 252 717 252 719 l 252 715 q 248 713 250 713 q 234 728 243 713 q 229 724 233 728 l 229 720 q 225 713 229 715 l 222 713 q 219 715 221 713 l 219 754 q 224 758 219 758 m 363 758 q 368 753 367 758 l 368 738 q 392 758 389 758 l 393 758 q 397 755 396 758 q 383 741 397 751 q 400 717 399 721 q 395 713 400 714 q 380 728 390 713 q 375 734 376 734 l 368 727 l 368 718 q 361 713 366 713 q 357 718 357 715 l 357 753 q 363 758 357 758 m 485 758 l 488 758 q 491 752 491 757 l 491 734 l 505 746 l 507 746 q 511 744 511 745 l 511 743 q 503 734 511 740 q 513 717 513 720 l 513 715 q 509 713 512 713 q 496 728 505 713 q 491 724 495 728 l 491 718 q 486 713 491 715 q 481 718 482 713 l 481 753 q 485 758 481 757 m 179 746 l 180 746 q 185 742 185 746 l 185 728 q 191 720 185 720 l 193 720 q 199 726 199 721 l 199 740 q 203 746 199 745 l 206 746 q 210 742 210 745 l 210 715 q 206 713 210 715 l 203 713 q 200 718 200 715 q 190 713 195 713 l 186 713 q 176 726 176 713 l 176 741 q 179 746 176 745 m 273 746 l 277 746 q 292 733 292 746 l 292 723 q 293 716 292 722 l 293 715 q 289 713 292 713 q 283 718 286 713 q 269 713 275 713 q 256 722 256 715 q 281 734 256 732 l 281 734 q 277 740 281 740 l 273 740 q 263 734 269 740 q 258 736 260 734 l 258 738 q 273 746 260 746 m 311 746 l 315 746 q 329 739 327 746 l 329 738 q 325 735 328 735 q 315 741 317 741 l 313 741 q 308 738 309 741 q 326 731 308 734 q 331 724 331 727 l 331 724 q 315 713 331 714 q 298 722 298 714 l 298 723 q 302 726 300 726 q 310 720 304 726 l 313 719 l 316 719 q 321 721 320 719 l 321 724 q 303 730 321 725 q 298 736 299 734 q 311 746 298 744 m 411 746 l 414 746 q 417 742 417 745 l 418 742 q 425 746 418 745 l 426 746 q 434 741 434 746 q 431 738 434 740 l 422 739 q 418 730 418 736 l 418 720 q 413 713 417 713 q 408 715 409 714 l 408 742 q 411 746 408 745 m 452 746 l 457 746 q 471 736 471 746 l 471 726 q 473 715 473 717 l 473 715 q 469 713 473 714 q 463 718 466 713 q 449 713 455 713 q 437 721 437 715 l 437 722 q 457 733 437 731 l 462 734 l 462 736 q 458 740 462 739 l 452 740 q 444 734 449 740 q 438 738 438 734 q 452 746 438 744 m 535 746 l 540 746 q 557 729 557 744 q 538 713 553 713 q 519 730 521 713 l 519 730 q 535 746 522 746 m 566 746 l 570 746 q 572 742 572 745 l 573 742 q 580 746 573 745 l 581 746 q 589 741 589 746 q 587 738 589 740 l 577 739 q 573 730 573 736 l 573 720 q 568 713 572 713 q 564 715 564 714 l 564 742 q 566 746 564 745 m 607 746 l 612 746 q 627 736 627 746 l 627 726 q 628 715 628 717 l 628 715 q 624 713 628 714 q 618 718 621 713 q 604 713 610 713 q 592 721 592 715 l 592 722 q 612 733 592 731 l 617 734 l 617 736 q 614 740 617 739 l 608 740 q 599 734 604 740 q 593 738 593 734 q 607 746 593 744 m 528 730 q 537 720 528 721 l 538 720 q 547 730 547 721 q 537 740 547 740 q 528 730 530 740 m 267 724 l 267 721 q 272 719 268 719 l 273 719 q 281 726 281 719 l 281 729 q 267 724 267 726 m 447 724 l 447 723 q 452 719 447 719 l 454 719 q 462 725 462 720 l 462 729 q 447 724 447 726 m 602 724 l 602 723 q 607 719 602 719 l 609 719 q 617 725 617 720 l 617 729 q 602 724 602 726 z "},"–":{"ha":894,"x_min":68,"x_max":826,"o":"m 821 475 l 810 473 l 772 475 l 716 475 l 652 479 l 593 481 l 547 486 l 535 482 l 332 486 l 314 484 l 262 481 l 233 483 l 206 481 l 136 478 l 77 479 l 68 486 q 70 610 70 517 l 70 629 l 78 638 l 98 635 l 174 638 l 290 635 l 309 638 l 349 635 l 487 635 l 557 631 l 611 631 l 690 631 l 730 629 l 820 629 l 826 622 l 826 593 l 823 517 l 821 475 z "},"—":{"ha":1024,"x_min":68,"x_max":956,"o":"m 951 471 l 939 468 l 894 471 l 828 471 l 753 475 l 684 477 l 629 481 l 616 478 l 378 481 l 356 479 l 295 477 l 262 479 l 231 477 l 148 474 l 79 475 l 68 482 q 70 609 70 514 l 70 628 l 80 638 l 103 635 l 193 638 l 328 635 l 351 638 l 397 635 l 559 635 l 642 631 l 705 631 l 798 631 l 844 628 l 950 628 l 956 622 l 956 592 l 954 514 l 951 471 z "},"…":{"ha":1287,"x_min":68,"x_max":1219,"o":"m 1093 269 l 1219 135 q 1083 5 1162 86 l 1075 5 l 976 100 q 951 128 951 121 q 1093 269 952 138 m 657 265 l 784 132 q 648 1 727 83 l 640 1 l 541 96 q 516 124 516 117 q 657 265 517 134 m 209 259 l 336 125 q 199 -5 279 77 l 191 -5 l 93 90 q 68 118 68 111 q 209 259 69 128 z "},"№":{"ha":1588,"x_min":68,"x_max":1520,"o":"m 1516 4 l 1508 1 l 1478 3 l 1381 7 l 1311 9 l 1307 9 l 1298 12 l 1288 9 l 1140 11 l 1126 12 l 1112 11 l 1070 8 l 970 5 l 924 7 l 916 13 q 918 81 918 38 l 919 100 l 918 116 l 918 132 l 925 140 l 940 137 l 1040 140 l 1064 137 l 1082 140 l 1093 137 l 1109 140 l 1250 137 l 1307 134 l 1349 134 l 1413 134 l 1443 132 l 1516 132 l 1520 126 l 1520 102 l 1517 38 l 1516 4 m 92 935 l 176 928 l 239 927 q 268 879 256 912 q 409 663 288 853 l 479 561 q 628 328 520 511 q 659 279 634 328 l 672 268 l 673 289 l 673 293 l 672 323 l 673 441 l 673 458 l 674 611 l 673 628 l 670 758 l 671 795 l 670 823 l 670 882 l 667 924 l 681 931 l 747 931 q 772 932 761 932 q 822 912 822 932 l 822 843 l 817 644 l 818 610 l 814 589 l 814 406 l 818 317 l 818 293 l 820 163 l 824 120 l 832 14 l 808 0 l 685 -1 l 668 8 q 437 363 600 130 l 282 593 q 233 670 243 644 l 222 659 l 226 434 l 222 423 l 226 370 l 226 243 l 229 222 l 229 155 l 236 109 l 237 3 l 229 -8 l 156 -12 l 141 -11 l 133 -9 l 117 -9 l 71 -14 l 68 -7 l 70 102 l 78 455 l 81 543 l 81 631 l 84 638 l 81 646 l 85 688 l 85 829 l 84 846 l 85 861 l 85 878 l 81 917 l 81 920 l 92 935 m 928 907 l 930 907 l 990 903 l 1035 900 l 1050 903 q 1233 892 1206 899 l 1236 895 l 1238 895 q 1446 774 1405 887 q 1461 682 1461 731 q 1429 594 1453 626 q 1394 568 1415 577 q 1379 555 1385 560 l 1379 551 q 1417 522 1394 539 q 1449 452 1440 494 q 1466 368 1459 416 l 1469 356 l 1472 331 l 1475 313 q 1516 236 1489 264 l 1516 233 l 1510 226 l 1462 229 l 1429 226 l 1415 227 l 1407 229 q 1352 359 1375 229 l 1348 388 l 1341 430 l 1335 457 l 1319 484 q 1225 528 1291 513 l 1211 526 l 1208 526 l 1144 528 l 1107 526 l 1084 531 l 1042 528 l 1038 522 l 1037 437 l 1038 381 l 1040 357 l 1039 340 l 1040 328 q 1047 229 1042 272 l 1027 229 l 1019 228 l 997 227 l 979 227 l 914 224 q 916 256 914 239 l 917 272 l 917 285 l 918 318 l 918 356 l 920 402 l 920 418 q 922 477 920 450 l 922 509 l 923 575 l 923 605 l 924 677 l 924 698 l 926 761 l 926 769 l 926 781 l 926 833 q 924 858 926 850 l 924 867 l 923 895 l 923 903 l 928 907 m 1037 793 l 1037 774 l 1036 750 l 1035 714 l 1037 689 l 1035 645 l 1037 637 l 1145 637 l 1176 632 l 1204 635 l 1240 635 q 1343 672 1322 635 q 1356 712 1356 690 q 1353 741 1356 720 q 1295 789 1350 762 l 1281 786 q 1264 793 1281 790 l 1236 789 l 1140 795 l 1123 791 l 1116 795 l 1099 791 l 1066 795 l 1049 795 l 1037 793 z "},"−":{"ha":894,"x_min":68,"x_max":826,"o":"m 821 475 l 810 473 l 772 475 l 716 475 l 652 479 l 593 481 l 547 486 l 535 482 l 332 486 l 314 484 l 262 481 l 233 483 l 206 481 l 136 478 l 77 479 l 68 486 q 70 610 70 517 l 70 629 l 78 638 l 98 635 l 174 638 l 290 635 l 309 638 l 349 635 l 487 635 l 557 631 l 611 631 l 690 631 l 730 629 l 820 629 l 826 622 l 826 593 l 823 517 l 821 475 z "}}}
